<?xml version="1.0" encoding="UTF-8"?>
<svg version="1.1" xmlns="http://www.w3.org/2000/svg" width="128" height="128">
<path d="M0 0 C0.99 0.66 1.98 1.32 3 2 C3.32470703 4.6262207 3.32470703 4.6262207 3.2578125 7.92578125 C3.24363281 9.11494141 3.22945313 10.30410156 3.21484375 11.52929688 C3.17037109 13.40198242 3.17037109 13.40198242 3.125 15.3125 C3.08151486 17.76685271 3.04228948 20.22128547 3.0078125 22.67578125 C2.98348145 23.76802002 2.95915039 24.86025879 2.93408203 25.9855957 C2.99561882 28.7996501 3.43057573 31.25542203 4 34 C3.5625 36.8125 3.5625 36.8125 3 39 C3.99 39 4.98 39 6 39 C6.495 41.97 6.495 41.97 7 45 C7.66 45 8.32 45 9 45 C9 45.66 9 46.32 9 47 C8.01 47.495 8.01 47.495 7 48 C7.99 48.8353125 7.99 48.8353125 9 49.6875 C11 52 11 52 11.3125 54.6875 C11 57 11 57 10 58 C10.28730055 60.33944736 10.61936779 62.6739143 11 65 C10.34 65 9.68 65 9 65 C9.66 66.65 10.32 68.3 11 70 C10.01 70 9.02 70 8 70 C8 70.99 8 71.98 8 73 C7.34 73 6.68 73 6 73 C4.68 75.31 3.36 77.62 2 80 C2.69222656 80.89525391 2.69222656 80.89525391 3.3984375 81.80859375 C7.74848102 87.59432357 11.63735759 93.51802989 15.3125 99.75 C15.73257324 100.45825928 16.15264648 101.16651855 16.58544922 101.89624023 C23 112.91746419 23 112.91746419 23 119 C23.495 122.465 23.495 122.465 24 126 C-15.27 126 -54.54 126 -95 126 C-96.09192376 120.5403812 -95.65680044 119.56969675 -93 115 C-93.66 115 -94.32 115 -95 115 C-95.3145951 110.82017934 -94.5089977 108.55231036 -92.3671875 104.98046875 C-91.80773437 104.04009766 -91.24828125 103.09972656 -90.671875 102.13085938 C-90.07890625 101.15955078 -89.4859375 100.18824219 -88.875 99.1875 C-88.30523437 98.22779297 -87.73546875 97.26808594 -87.1484375 96.27929688 C-84.05522917 91.12980801 -80.82560443 86.24397818 -77.07080078 81.55200195 C-75.81070122 80.03989277 -75.81070122 80.03989277 -76 78 C-76.66 78 -77.32 78 -78 78 C-78 77.34 -78 76.68 -78 76 C-78.99 76 -79.98 76 -81 76 C-81 74.68 -81 73.36 -81 72 C-81.99 72 -82.98 72 -84 72 C-86.43409663 62.61134158 -86.42877739 54.85755477 -82 46 C-81.9603287 44.33380554 -81.95615553 42.66608987 -82 41 C-81.36578125 40.77570312 -80.7315625 40.55140625 -80.078125 40.3203125 C-77.81476168 39.17423232 -77.81476168 39.17423232 -77.171875 36.8046875 C-75.50779058 25.24854568 -75.81483638 13.6496402 -76 2 C-71.59214242 2.87570555 -68.69289817 5.31196487 -65.25 8.0625 C-64.64800781 8.53494141 -64.04601562 9.00738281 -63.42578125 9.49414062 C-61.94590057 10.65690401 -60.47231904 11.8276766 -59 13 C-57.989375 12.21625 -56.97875 11.4325 -55.9375 10.625 C-49.48883121 6.07223983 -42.71815891 5.21510248 -35 6 C-31.81380064 6.7771218 -28.69276242 7.64623042 -25.56640625 8.63671875 C-24.71949219 8.75660156 -23.87257813 8.87648438 -23 9 C-21.12210701 7.6971957 -21.12210701 7.6971957 -20 6 C-19.01 6.33 -18.02 6.66 -17 7 C-17.33 8.65 -17.66 10.3 -18 12 C-13.67870413 10.55956804 -10.76883035 8.37514503 -7.3125 5.4375 C-2.16046967 1.08023483 -2.16046967 1.08023483 0 0 Z M-76 31 C-75 33 -75 33 -75 33 Z " fill="#2B2A22" transform="translate(104,2)"/>
<path d="M0 0 C1.27671262 0.73994746 2.54614246 1.4924672 3.8125 2.25 C4.52019531 2.66765625 5.22789063 3.0853125 5.95703125 3.515625 C8 5 8 5 9.37890625 7.06640625 C11.66758665 9.79627805 13.66352514 9.94237614 17.125 10.6875 C24.50036287 12.43195805 31.56591742 14.85625724 38.6875 17.4375 C39.71955566 17.8089917 40.75161133 18.1804834 41.81494141 18.56323242 C48.0543491 20.83891529 54.17079157 23.3033326 60.24633789 25.98730469 C64.42669265 27.52468491 68.57210112 27.8922414 73 28 C73.495 30.97 73.495 30.97 74 34 C74.66 34 75.32 34 76 34 C76 34.66 76 35.32 76 36 C75.01 36.495 75.01 36.495 74 37 C74.99 37.8353125 74.99 37.8353125 76 38.6875 C78 41 78 41 78.3125 43.6875 C78 46 78 46 77 47 C77.28730055 49.33944736 77.61936779 51.6739143 78 54 C77.34 54 76.68 54 76 54 C76.99 56.475 76.99 56.475 78 59 C77.01 59 76.02 59 75 59 C75 59.99 75 60.98 75 62 C73.35 61.34 71.7 60.68 70 60 C70 60.99 70 61.98 70 63 C69.34 63 68.68 63 68 63 C68.495 64.485 68.495 64.485 69 66 C65.27569643 66.69289369 61.78916254 67.11144596 58 67 C58 67.66 58 68.32 58 69 C54.65980482 71.22679679 53.83128253 71.09122101 50 71 C42.81510841 71.94538047 37.92855239 74.78981604 33 80 C32.34 80 31.68 80 31 80 C30.67 80.66 30.34 81.32 30 82 C30 81.34 30 80.68 30 80 C29.195625 79.62875 29.195625 79.62875 28.375 79.25 C26 78 26 78 23.30859375 76.01953125 C19.66405685 73.79494379 16.88091317 73.1298704 12.6875 72.4375 C6.90108123 71.4193012 1.51617914 70.03227653 -4 68 C-4 67.01 -4 66.02 -4 65 C-4.66 65 -5.32 65 -6 65 C-5.82374165 62.62051228 -5.30280227 61.29774151 -3.59765625 59.62109375 C-2.09350908 58.37884514 -0.54870149 57.18623944 1 56 C0.0925 56.680625 -0.815 57.36125 -1.75 58.0625 C-5 60 -5 60 -7.375 59.75 C-7.91125 59.5025 -8.4475 59.255 -9 59 C-9.33 59.66 -9.66 60.32 -10 61 C-10.66 60.67 -11.32 60.34 -12 60 C-11.6515759 57.47392527 -11.26730554 56.25682297 -9.40625 54.46875 C-2.48607173 50.24474508 8.02586777 49.51178782 16 50 C16 50.33 16 50.66 16 51 C12.37 51.99 8.74 52.98 5 54 C5.92683594 53.855625 6.85367188 53.71125 7.80859375 53.5625 C9.00613281 53.376875 10.20367187 53.19125 11.4375 53 C12.63246094 52.814375 13.82742187 52.62875 15.05859375 52.4375 C18 52 18 52 19 52 C19 51.34 19 50.68 19 50 C16.36 49.67 13.72 49.34 11 49 C11.5259375 48.071875 11.5259375 48.071875 12.0625 47.125 C12.371875 46.42375 12.68125 45.7225 13 45 C12.67 44.34 12.34 43.68 12 43 C13.093125 42.9175 14.18625 42.835 15.3125 42.75 C19.03276664 42.36310791 19.03276664 42.36310791 20.9375 39.9375 C21.4634375 38.9784375 21.4634375 38.9784375 22 38 C20.35 37.67 18.7 37.34 17 37 C17 37.99 17 38.98 17 40 C16.01 40 15.02 40 14 40 C13.67 38.02 13.34 36.04 13 34 C14.65 34.33 16.3 34.66 18 35 C18.86850174 32.75124253 18.86850174 32.75124253 19 30 C17.12802546 27.30566683 17.12802546 27.30566683 15 25 C15 24.34 15 23.68 15 23 C14.01 23.33 13.02 23.66 12 24 C11.375 22.125 11.375 22.125 11 20 C11.66 19.34 12.32 18.68 13 18 C12.67 17.34 12.34 16.68 12 16 C12.66 16 13.32 16 14 16 C14 15.34 14 14.68 14 14 C10.37 14.33 6.74 14.66 3 15 C1 11 1 11 0 8 C0.33 7.34 0.66 6.68 1 6 C0.01 5.67 -0.98 5.34 -2 5 C-1.34 3.35 -0.68 1.7 0 0 Z " fill="#25231C" transform="translate(37,13)"/>
<path d="M0 0 C1.32 0.99 2.64 1.98 4 3 C4.33 2.01 4.66 1.02 5 0 C7.58373234 0.30944701 10.16695133 0.62243957 12.75 0.9375 C13.47960938 1.02451172 14.20921875 1.11152344 14.9609375 1.20117188 C18.37584442 1.62027409 21.67603543 2.117274 25 3 C23.86695008 6.39914975 22.87481525 7.05254451 20 9 C23.01447835 11.57075841 25.35979771 12.52207066 29.25 13.1875 C30.58804688 13.42533203 30.58804688 13.42533203 31.953125 13.66796875 C32.96632813 13.83232422 32.96632813 13.83232422 34 14 C34.16804487 18.37647301 33.36473707 20.31101017 31 24 C29.37503142 30.49987431 29.41792934 37.31313048 29 44 C12.83 44 -3.34 44 -20 44 C-21.09192376 38.5403812 -20.65680044 37.56969675 -18 33 C-18.66 33 -19.32 33 -20 33 C-20.42901264 26.82687069 -17.43862997 22.98382202 -14.3125 17.875 C-13.51682617 16.51568359 -13.51682617 16.51568359 -12.70507812 15.12890625 C-12.17978516 14.25878906 -11.65449219 13.38867188 -11.11328125 12.4921875 C-10.63673096 11.70183105 -10.16018066 10.91147461 -9.66918945 10.09716797 C-7.72739084 7.65749412 -5.69243677 6.52726773 -3 5 C-1.73195434 2.9664052 -1.73195434 2.9664052 -1 1 C-0.67 0.67 -0.34 0.34 0 0 Z " fill="#E34DA5" transform="translate(29,84)"/>
<path d="M0 0 C4.07167552 3.77463158 6.9855747 7.71059688 9.875 12.4375 C10.30409668 13.13327148 10.73319336 13.82904297 11.17529297 14.54589844 C22 32.3515523 22 32.3515523 22 39 C22.495 42.465 22.495 42.465 23 46 C5.51 46 -11.98 46 -30 46 C-30 40.39 -30 34.78 -30 29 C-31.31698315 24.38713849 -31.31698315 24.38713849 -33 21 C-33 19.68 -33 18.36 -33 17 C-31.11157486 16.12957757 -29.21388098 15.27924526 -27.3125 14.4375 C-26.25675781 13.96183594 -25.20101562 13.48617187 -24.11328125 12.99609375 C-20.08376658 11.70685129 -17.78232309 12.33913863 -13.9140625 13.7734375 C-11.8722996 14.23906444 -11.8722996 14.23906444 -10.1484375 12.6015625 C-9.56320313 11.94929688 -8.97796875 11.29703125 -8.375 10.625 C-5.12454212 7.06227106 -5.12454212 7.06227106 -3 6 C-2.835 5.175 -2.67 4.35 -2.5 3.5 C-2.335 2.675 -2.17 1.85 -2 1 C-1.34 0.67 -0.68 0.34 0 0 Z " fill="#D25392" transform="translate(105,82)"/>
<path d="M0 0 C2.02540609 0.72420043 4.02172825 1.53050192 6 2.375 C11.74288635 4.68109786 16.82919686 5.84677464 23 6 C23.495 8.97 23.495 8.97 24 12 C24.66 12 25.32 12 26 12 C26 12.66 26 13.32 26 14 C25.34 14.33 24.68 14.66 24 15 C24.66 15.556875 25.32 16.11375 26 16.6875 C28 19 28 19 28.3125 21.6875 C28 24 28 24 27 25 C27.28730055 27.33944736 27.61936779 29.6739143 28 32 C27.34 32 26.68 32 26 32 C26.66 33.65 27.32 35.3 28 37 C27.01 37 26.02 37 25 37 C25 37.99 25 38.98 25 40 C23.35 39.34 21.7 38.68 20 38 C20 38.66 20 39.32 20 40 C15.3595511 40.41947561 12.33054173 39.0087475 8.1875 37 C7.02605469 36.443125 5.86460938 35.88625 4.66796875 35.3125 C3.78753906 34.879375 2.90710938 34.44625 2 34 C2 37.51716303 2.82445585 38.37121748 5 41 C2.44756388 39.86558395 0.60902855 38.67577977 -1.5625 36.875 C-3.88377389 34.69514462 -3.88377389 34.69514462 -7 35 C-6.34 36.32 -5.68 37.64 -5 39 C-7.64 37.02 -10.28 35.04 -13 33 C-13.33 33.66 -13.66 34.32 -14 35 C-15.65 34.34 -17.3 33.68 -19 33 C-18.42655063 30.13275314 -18.1385485 29.1385485 -16 27 C-16 25.68 -16 24.36 -16 23 C-10.25 22.875 -10.25 22.875 -8 24 C-8 23.34 -8 22.68 -8 22 C-6.906875 22.0825 -5.81375 22.165 -4.6875 22.25 C-1.06938199 22.38381359 -1.06938199 22.38381359 0.75 20.4375 C2.33637264 17.34407336 3.69779567 14.22450595 5 11 C4.01 11 3.02 11 2 11 C2.33 11.99 2.66 12.98 3 14 C0.60759494 19.69620253 0.60759494 19.69620253 -2 21 C-7.37608319 21.45753899 -7.37608319 21.45753899 -9.875 19.625 C-11 18 -11 18 -11 16 C-9.35 15.67 -7.7 15.34 -6 15 C-6 15.99 -6 16.98 -6 18 C-5.34 18 -4.68 18 -4 18 C-4 16.68 -4 15.36 -4 14 C-6.31 14 -8.62 14 -11 14 C-9.52186113 10.77026656 -7.68253503 8.11002902 -5.5 5.3125 C-4.8915625 4.52488281 -4.283125 3.73726562 -3.65625 2.92578125 C-2 1 -2 1 0 0 Z " fill="#292821" transform="translate(87,35)"/>
<path d="M0 0 C0.66 0 1.32 0 2 0 C1.47731534 2.76276177 0.89130413 5.3260876 0 8 C-0.66 8 -1.32 8 -2 8 C-2 8.66 -2 9.32 -2 10 C-2.66 10 -3.32 10 -4 10 C-3.90847656 10.72316406 -3.81695312 11.44632813 -3.72265625 12.19140625 C-4.20416698 17.06755015 -7.6549629 19.26612499 -11.21484375 22.3203125 C-14 24 -14 24 -16.31640625 23.9921875 C-17.78800796 23.53412185 -19.24713326 23.03415624 -20.69140625 22.49609375 C-24.56240387 21.66425501 -27.46619424 23.41594783 -30.93359375 25.0546875 C-33 26 -33 26 -35 26 C-34.71125 26.69222656 -34.4225 27.38445312 -34.125 28.09765625 C-30.89216377 36.61752674 -30.29623545 43.97796917 -31 53 C-31.495 53.99 -31.495 53.99 -32 55 C-37.61 55 -43.22 55 -49 55 C-49.42230347 38.10786106 -49.42230347 38.10786106 -46 31 C-45.32264783 29.00359361 -44.65161065 27.00495586 -44 25 C-45.546875 25.0928125 -45.546875 25.0928125 -47.125 25.1875 C-52.04096712 24.94963062 -55.21929157 23.60263759 -58.875 20.3125 C-59.431875 19.6628125 -59.431875 19.6628125 -60 19 C-59.030625 18.54625 -58.06125 18.0925 -57.0625 17.625 C-53.92920418 16.34213779 -53.92920418 16.34213779 -53 14 C-59.6 13.34 -66.2 12.68 -73 12 C-73.33 13.32 -73.66 14.64 -74 16 C-75.32 14.68 -76.64 13.36 -78 12 C-78.2475 12.598125 -78.495 13.19625 -78.75 13.8125 C-80.16370012 16.28647521 -81.65055383 17.43370255 -84 19 C-84 15.64593891 -83.58875884 15.110846 -81.625 12.5625 C-79.80045088 10.12287624 -78.23343484 7.803261 -77 5 C-77 5.66 -77 6.32 -77 7 C-75.948125 7.12375 -74.89625 7.2475 -73.8125 7.375 C-70 8 -70 8 -67.7109375 8.96484375 C-64.43584578 10.21541912 -61.2754998 10.65279848 -57.8125 11.1875 C-50.59877089 12.43894251 -45.52965706 15.25100041 -40 20 C-37.03363751 18.29209432 -34.67195192 16.70047784 -32.125 14.375 C-28.57993485 11.68075049 -26.37203062 11.33631005 -22 11 C-21.34 10.67 -20.68 10.34 -20 10 C-18.33333333 10 -16.66666667 10 -15 10 C-14.01 9.67 -13.02 9.34 -12 9 C-12 8.34 -12 7.68 -12 7 C-8.7 6.34 -5.4 5.68 -2 5 C-2 4.34 -2 3.68 -2 3 C-1.34 3 -0.68 3 0 3 C0 2.01 0 1.02 0 0 Z " fill="#383051" transform="translate(107,73)"/>
<path d="M0 0 C1.32 0.99 2.64 1.98 4 3 C4.33 2.01 4.66 1.02 5 0 C7.58373234 0.30944701 10.16695133 0.62243957 12.75 0.9375 C13.47960937 1.02451172 14.20921875 1.11152344 14.9609375 1.20117188 C18.37584442 1.62027409 21.67603543 2.117274 25 3 C23.86695008 6.39914975 22.87481525 7.05254451 20 9 C23.01447835 11.57075841 25.35979771 12.52207066 29.25 13.1875 C30.58804688 13.42533203 30.58804688 13.42533203 31.953125 13.66796875 C32.96632813 13.83232422 32.96632813 13.83232422 34 14 C34.27765692 17.96355247 33.72272911 20.03397457 31.5 23.3125 C31.0359375 24.00988281 30.571875 24.70726563 30.09375 25.42578125 C29.7328125 25.94527344 29.371875 26.46476562 29 27 C28.34 26.01 27.68 25.02 27 24 C24.48614741 23.49039309 24.48614741 23.49039309 21.5546875 23.48828125 C20.47832031 23.45283203 19.40195312 23.41738281 18.29296875 23.38085938 C17.16503906 23.35830078 16.03710938 23.33574219 14.875 23.3125 C13.73933594 23.27833984 12.60367188 23.24417969 11.43359375 23.20898438 C8.62249421 23.12630498 5.81171447 23.05722063 3 23 C3 21.02 3 19.04 3 17 C2.34 17 1.68 17 1 17 C-1.37403517 20.63087732 -0.71964651 22.86203255 0 27 C-2 29 -2 29 -5 30 C-7.69921875 29.22265625 -7.69921875 29.22265625 -10.6875 28.0625 C-11.68136719 27.68222656 -12.67523437 27.30195312 -13.69921875 26.91015625 C-14.45847656 26.60980469 -15.21773437 26.30945313 -16 26 C-15.67 24.68 -15.34 23.36 -15 22 C-14.34 22 -13.68 22 -13 22 C-13.103125 21.175 -13.20625 20.35 -13.3125 19.5 C-12.88836532 14.74969164 -10.99780146 11.65764363 -8 8 C-5.3125 6.25 -5.3125 6.25 -3 5 C-1.73195434 2.9664052 -1.73195434 2.9664052 -1 1 C-0.67 0.67 -0.34 0.34 0 0 Z " fill="#EF58B3" transform="translate(29,84)"/>
<path d="M0 0 C0.84691406 0.11988281 1.69382813 0.23976563 2.56640625 0.36328125 C4.44429924 -0.93952305 4.44429924 -0.93952305 5.56640625 -2.63671875 C6.55640625 -2.30671875 7.54640625 -1.97671875 8.56640625 -1.63671875 C8.23640625 0.01328125 7.90640625 1.66328125 7.56640625 3.36328125 C10.09652439 5.40561085 12.63754262 7.41645179 15.2421875 9.36328125 C16.54736328 10.35328125 16.54736328 10.35328125 17.87890625 11.36328125 C18.76191406 12.02328125 19.64492187 12.68328125 20.5546875 13.36328125 C21.21855469 14.02328125 21.88242188 14.68328125 22.56640625 15.36328125 C22.56640625 19.36328125 22.56640625 19.36328125 21.44140625 21.11328125 C18.71085128 22.93365123 16.82941179 22.57123641 13.56640625 22.36328125 C10.89840977 21.7135619 8.35745674 21.01771465 5.75390625 20.17578125 C5.04903076 19.95164551 4.34415527 19.72750977 3.61791992 19.49658203 C-2.85088873 17.36338613 -8.40256312 14.38396833 -14.05859375 10.61328125 C-17.13363364 8.9948392 -20.00094644 8.6998153 -23.43359375 8.36328125 C-23.10359375 8.69328125 -22.77359375 9.02328125 -22.43359375 9.36328125 C-23.75359375 9.69328125 -25.07359375 10.02328125 -26.43359375 10.36328125 C-26.43359375 9.70328125 -26.43359375 9.04328125 -26.43359375 8.36328125 C-28.90859375 7.37328125 -28.90859375 7.37328125 -31.43359375 6.36328125 C-30.46080348 2.76395726 -29.80657508 1.59031336 -26.55859375 -0.38671875 C-17.38165462 -4.0574944 -9.28640591 -2.94210774 0 0 Z " fill="#EF56B4" transform="translate(78.43359375,10.63671875)"/>
<path d="M0 0 C1.485 0.495 1.485 0.495 3 1 C2.690625 2.216875 2.38125 3.43375 2.0625 4.6875 C0.70131794 10.73076221 0.36241197 16.82945928 0 23 C-0.99 23.33 -1.98 23.66 -3 24 C-5.31 21.03 -7.62 18.06 -10 15 C-14.48415202 16.121038 -15.6238804 17.29846336 -18.75 20.5625 C-19.54921875 21.38878906 -20.3484375 22.21507813 -21.171875 23.06640625 C-21.77515625 23.70449219 -22.3784375 24.34257813 -23 25 C-22.36771484 25.70576172 -22.36771484 25.70576172 -21.72265625 26.42578125 C-21.17480469 27.04839844 -20.62695312 27.67101562 -20.0625 28.3125 C-19.51722656 28.92738281 -18.97195312 29.54226562 -18.41015625 30.17578125 C-17 32 -17 32 -16 35 C-13.14223486 35.53583096 -11.74263197 35.78434148 -9 35 C-5.9589606 32.28686398 -3.47002518 29.23348751 -1 26 C-0.34 26.33 0.32 26.66 1 27 C1.495 32.94 1.495 32.94 2 39 C-7.9 39 -17.8 39 -28 39 C-27.938125 36.36 -27.87625 33.72 -27.8125 31 C-27.73810836 24.60655283 -28.24510356 19.85415493 -31 14 C-31 12.68 -31 11.36 -31 10 C-29.11157486 9.12957757 -27.21388098 8.27924526 -25.3125 7.4375 C-24.25675781 6.96183594 -23.20101562 6.48617187 -22.11328125 5.99609375 C-18.11196138 4.71587221 -15.79564102 5.27052084 -12 6.8125 C-9.77403677 7.24193518 -9.77403677 7.24193518 -7.5625 5.25 C-6.716875 4.5075 -5.87125 3.765 -5 3 C-2.375 1.1875 -2.375 1.1875 0 0 Z " fill="#E950AE" transform="translate(103,89)"/>
<path d="M0 0 C0.99 0.66 1.98 1.32 3 2 C3.32470703 4.6262207 3.32470703 4.6262207 3.2578125 7.92578125 C3.24363281 9.11494141 3.22945312 10.30410156 3.21484375 11.52929688 C3.17037109 13.40198242 3.17037109 13.40198242 3.125 15.3125 C3.08151486 17.76685271 3.04228948 20.22128547 3.0078125 22.67578125 C2.97131592 24.3141394 2.97131592 24.3141394 2.93408203 25.9855957 C2.90909132 28.97032142 2.90909132 28.97032142 3.55810547 31.71948242 C4.13317076 34.68726413 3.29724505 36.32920137 2 39 C-5.86493587 38.57954745 -12.15644981 36.2344605 -19.375 33.1875 C-30.59979705 28.53781217 -41.37710174 24.1002219 -53.34765625 21.80859375 C-56 21 -56 21 -58 18 C-58.125 14.8125 -58.125 14.8125 -58 12 C-57.01 12 -56.02 12 -55 12 C-55.66 12.99 -56.32 13.98 -57 15 C-56.21625 15.12375 -55.4325 15.2475 -54.625 15.375 C-52 16 -52 16 -50 18 C-49.67 17.34 -49.34 16.68 -49 16 C-41.41363566 17.30740066 -36.38691204 19.78813907 -29.9375 24 C-22.86631298 28.04986166 -14.1150831 30.34584829 -6 30 C-6 29.34 -6 28.68 -6 28 C-5.01 28 -4.02 28 -3 28 C-4.15565619 23.0884612 -6.97459544 21.24177005 -10.9296875 18.52734375 C-13.18112706 16.86637608 -15.06577092 15.01662897 -17 13 C-14.54405205 11.01785835 -12.08484507 9.03980247 -9.625 7.0625 C-8.92632812 6.49853516 -8.22765625 5.93457031 -7.5078125 5.35351562 C-6.50234375 4.54624023 -6.50234375 4.54624023 -5.4765625 3.72265625 C-4.549646 2.97640991 -4.549646 2.97640991 -3.60400391 2.21508789 C-2 1 -2 1 0 0 Z " fill="#A3445D" transform="translate(104,2)"/>
<path d="M0 0 C1.9453125 -0.29296875 1.9453125 -0.29296875 4.125 -0.1875 C5.40375 -0.125625 6.6825 -0.06375 8 0 C8 0.66 8 1.32 8 2 C8.66 2 9.32 2 10 2 C13.66438107 9.48144469 13.52020519 16.81677216 13 25 C12.67 25.66 12.34 26.32 12 27 C6.39 27 0.78 27 -5 27 C-5.46987952 8.20481928 -5.46987952 8.20481928 0 0 Z " fill="#403363" transform="translate(63,101)"/>
<path d="M0 0 C0.99 0.33 1.98 0.66 3 1 C3.2098924 10.29356889 3.0296189 18.86671493 1 28 C-5.93 28 -12.86 28 -20 28 C-21.09192376 22.5403812 -20.65680044 21.56969675 -18 17 C-18.66 17 -19.32 17 -20 17 C-20.37815631 12.62756771 -19.34305827 10.34852855 -17 6.6875 C-16.443125 5.80449219 -15.88625 4.92148438 -15.3125 4.01171875 C-14.879375 3.34785156 -14.44625 2.68398437 -14 2 C-13.67 3.32 -13.34 4.64 -13 6 C-13.66 6 -14.32 6 -15 6 C-15.33 7.32 -15.66 8.64 -16 10 C-15.154375 10.12375 -14.30875 10.2475 -13.4375 10.375 C-9.84763202 11.02770327 -6.49175125 11.95247463 -3 13 C-0.58815612 10.10459527 -0.58815612 10.10459527 -1.5 6.5 C-2 3 -2 3 0 0 Z " fill="#CE4990" transform="translate(29,100)"/>
<path d="M0 0 C0.99 0.66 1.98 1.32 3 2 C4.11119025 10.67445293 2.74430616 19.49650749 1 28 C0.071875 27.175 -0.85625 26.35 -1.8125 25.5 C-6.63858793 21.34916717 -11.81940662 17.69105568 -17 14 C-13.46843481 10.31118515 -9.81465908 7.22617756 -5.6875 4.1875 C-5.13771484 3.78080078 -4.58792969 3.37410156 -4.02148438 2.95507812 C-2.68374453 1.96631389 -1.34226377 0.98261415 0 0 Z " fill="#2B2A22" transform="translate(104,2)"/>
<path d="M0 0 C3.4839923 1.85812922 5.7424005 4.72493648 7.875 8 C8.375 10.8125 8.375 10.8125 7.875 13 C7.215 13.66 6.555 14.32 5.875 15 C5.545 15.825 5.215 16.65 4.875 17.5 C3.875 20 3.875 20 1.875 22 C-1.90617613 22.14828142 -4.24214584 21.76650904 -7.140625 19.25 C-12.125 13.73882114 -12.125 13.73882114 -12.125 10 C-10.078125 7.484375 -10.078125 7.484375 -7.375 4.75 C-6.05242187 3.38101563 -6.05242187 3.38101563 -4.703125 1.984375 C-2.125 0 -2.125 0 0 0 Z " fill="#E4A037" transform="translate(92.125,103)"/>
<path d="M0 0 C0.33 0.66 0.66 1.32 1 2 C3.32961443 2.35840222 5.66365343 2.68848712 8 3 C8.75410156 3.31582031 9.50820313 3.63164063 10.28515625 3.95703125 C13.56203534 5.21591861 16.71995853 5.65209722 20.1875 6.1875 C27.23343753 7.42540505 32.83331587 9.95488491 38 15 C38 15.66 38 16.32 38 17 C39.65 17.33 41.3 17.66 43 18 C43 20.31 43 22.62 43 25 C42.505 24.01 42.505 24.01 42 23 C39.36 23 36.72 23 34 23 C34 22.01 34 21.02 34 20 C32.453125 20.0928125 32.453125 20.0928125 30.875 20.1875 C25.95903288 19.94963062 22.78070843 18.60263759 19.125 15.3125 C18.568125 14.6628125 18.568125 14.6628125 18 14 C19.4540625 13.319375 19.4540625 13.319375 20.9375 12.625 C24.07079582 11.34213779 24.07079582 11.34213779 25 9 C18.4 8.34 11.8 7.68 5 7 C4.67 8.32 4.34 9.64 4 11 C2.68 9.68 1.36 8.36 0 7 C-0.2475 7.598125 -0.495 8.19625 -0.75 8.8125 C-2.16370012 11.28647521 -3.65055383 12.43370255 -6 14 C-6 10.61947781 -5.56634911 10.11130525 -3.5625 7.5625 C-1.59808236 5.06080574 -0.59983656 3.13707627 0 0 Z " fill="#B64870" transform="translate(29,78)"/>
<path d="M0 0 C0.99 0.33 1.98 0.66 3 1 C3.33 1.99 3.66 2.98 4 4 C4.515625 4.515625 5.03125 5.03125 5.5625 5.5625 C6.036875 6.036875 6.51125 6.51125 7 7 C7 7.66 7 8.32 7 9 C7.66 9.33 8.32 9.66 9 10 C9 10.99 9 11.98 9 13 C9.66 13 10.32 13 11 13 C11.66 15.31 12.32 17.62 13 20 C9.73386305 21.91302307 7.00554752 22.35674661 3.25 22.625 C2.26515625 22.69976562 1.2803125 22.77453125 0.265625 22.8515625 C-0.48203125 22.90054688 -1.2296875 22.94953125 -2 23 C-2.33 22.34 -2.66 21.68 -3 21 C-1.02 20.34 0.96 19.68 3 19 C2.030625 18.71125 1.06125 18.4225 0.0625 18.125 C-3 17 -3 17 -4 15 C-4.46537396 8.60110803 -4.46537396 8.60110803 -2.5 6.0625 C-2.005 5.711875 -1.51 5.36125 -1 5 C-0.34 5.33 0.32 5.66 1 6 C1 5.34 1 4.68 1 4 C0.34 4 -0.32 4 -1 4 C-0.67 2.68 -0.34 1.36 0 0 Z " fill="#EC52AB" transform="translate(111,96)"/>
<path d="M0 0 C1.32 0.99 2.64 1.98 4 3 C4.33 2.01 4.66 1.02 5 0 C7.58373234 0.30944701 10.16695133 0.62243957 12.75 0.9375 C13.47960938 1.02451172 14.20921875 1.11152344 14.9609375 1.20117188 C18.37584442 1.62027409 21.67603543 2.117274 25 3 C23.86695008 6.39914975 22.87481525 7.05254451 20 9 C21.32 10.32 22.64 11.64 24 13 C19.38 13.33 14.76 13.66 10 14 C9.4225 13.030625 8.845 12.06125 8.25 11.0625 C5.85131387 7.79762166 5.6306865 7.70271352 2 7 C0.1875 5.125 0.1875 5.125 -1 3 C-0.67 2.01 -0.34 1.02 0 0 Z " fill="#EC52AF" transform="translate(29,84)"/>
<path d="M0 0 C1.9453125 -0.29296875 1.9453125 -0.29296875 4.125 -0.1875 C5.40375 -0.125625 6.6825 -0.06375 8 0 C7.690625 0.804375 7.38125 1.60875 7.0625 2.4375 C6.17689507 5.40688123 5.94552589 7.14663744 5.875 10.125 C5.30285029 16.68789371 1.09620097 22.04937674 -3 27 C-3.66 27 -4.32 27 -5 27 C-5.60902256 8.41353383 -5.60902256 8.41353383 0 0 Z " fill="#3F3465" transform="translate(63,101)"/>
<path d="M0 0 C6.40140935 0.46555704 11.26769829 2.14711836 17 5 C17 6.98 17 8.96 17 11 C10.07 11 3.14 11 -4 11 C-4.33 9.35 -4.66 7.7 -5 6 C-4.360625 5.7525 -3.72125 5.505 -3.0625 5.25 C-0.81258459 4.18437567 -0.81258459 4.18437567 -0.25 1.875 C-0.1675 1.25625 -0.085 0.6375 0 0 Z " fill="#2B2A22" transform="translate(13,117)"/>
<path d="M0 0 C3.30982052 3.30982052 3.16093161 4.96558964 4 10 C-3.59 10 -11.18 10 -19 10 C-19 8.68 -19 7.36 -19 6 C-16.58967749 4.79783666 -14.17316521 3.61325022 -11.75 2.4375 C-11.06808594 2.09525391 -10.38617188 1.75300781 -9.68359375 1.40039062 C-3.82258642 -1.41630707 -3.82258642 -1.41630707 0 0 Z " fill="#26251D" transform="translate(124,118)"/>
<path d="M0 0 C3.09893927 0.59663486 5.00292174 1.5301314 7.453125 3.50390625 C8.071875 3.99697266 8.690625 4.49003906 9.328125 4.99804688 C9.96234375 5.51431641 10.5965625 6.03058594 11.25 6.5625 C11.8996875 7.08263672 12.549375 7.60277344 13.21875 8.13867188 C14.81727669 9.419844 16.40928626 10.70914005 18 12 C17.67 12.99 17.34 13.98 17 15 C8.55353075 8.84965831 8.55353075 8.84965831 5 5 C4.67 8.3 4.34 11.6 4 15 C3.34 15 2.68 15 2 15 C2.0721875 15.65484375 2.144375 16.3096875 2.21875 16.984375 C2.93351253 24.01287318 3.11091604 30.93834518 3 38 C2.01 38.495 2.01 38.495 1 39 C1 38.34 1 37.68 1 37 C0.01 37 -0.98 37 -2 37 C-1.855625 36.34 -1.71125 35.68 -1.5625 35 C0.61251789 23.3999046 0.18685508 11.75605945 0 0 Z M0 29 C1 31 1 31 1 31 Z " fill="#525049" transform="translate(28,4)"/>
<path d="M0 0 C6.6 0 13.2 0 20 0 C20 1.98 20 3.96 20 6 C13.28815967 8.94378962 9.15029399 9.50117017 2.0625 6.9375 C1.381875 6.628125 0.70125 6.31875 0 6 C0 4.02 0 2.04 0 0 Z " fill="#E252A4" transform="translate(35,108)"/>
<path d="M0 0 C0 3.63 0 7.26 0 11 C-5.28 11 -10.56 11 -16 11 C-16 10.34 -16 9.68 -16 9 C-16.66 9 -17.32 9 -18 9 C-18 7.02 -18 5.04 -18 3 C-17.25234375 3.03480469 -16.5046875 3.06960937 -15.734375 3.10546875 C-14.74953125 3.13253906 -13.7646875 3.15960938 -12.75 3.1875 C-11.77546875 3.22230469 -10.8009375 3.25710937 -9.796875 3.29296875 C-5.64468443 2.85803259 -4.17310042 0 0 0 Z " fill="#F358B5" transform="translate(54,116)"/>
<path d="M0 0 C0.66 0 1.32 0 2 0 C2 3.63 2 7.26 2 11 C2.99 10.67 3.98 10.34 5 10 C5 10.66 5 11.32 5 12 C5.99 11.67 6.98 11.34 8 11 C8 11.66 8 12.32 8 13 C5.5 14.625 5.5 14.625 3 16 C5.97 16 8.94 16 12 16 C9.87838666 18.12161334 8.2266841 18.92986249 5.5 20.125 C4.30890625 20.65480469 4.30890625 20.65480469 3.09375 21.1953125 C1 22 1 22 -1 22 C-1.33 22.66 -1.66 23.32 -2 24 C-2.33 20.7 -2.66 17.4 -3 14 C-4.98 15.32 -6.96 16.64 -9 18 C-8.690625 17.401875 -8.38125 16.80375 -8.0625 16.1875 C-6.89790296 13.91043228 -6.89790296 13.91043228 -6 11 C-5.34 10.67 -4.68 10.34 -4 10 C-3.53476937 8.10466658 -3.53476937 8.10466658 -3.375 5.9375 C-3.25125 4.638125 -3.1275 3.33875 -3 2 C-2.01 2 -1.02 2 0 2 C0 1.34 0 0.68 0 0 Z " fill="#C9488B" transform="translate(106,102)"/>
<path d="M0 0 C0.70703125 1.7421875 0.70703125 1.7421875 1 4 C-0.36328125 6.0703125 -0.36328125 6.0703125 -2.3125 8.125 C-2.94800781 8.80820313 -3.58351563 9.49140625 -4.23828125 10.1953125 C-5.48408504 11.47150175 -6.73891196 12.73891196 -8 14 C-12.50046315 13.74997427 -15.41788227 11.58245696 -19 9 C-18.67 8.01 -18.34 7.02 -18 6 C-15.5386285 4.79281183 -13.17935235 3.77394303 -10.625 2.8125 C-9.93921875 2.53986328 -9.2534375 2.26722656 -8.546875 1.98632812 C-5.56405784 0.82860045 -3.22557496 0 0 0 Z " fill="#C94984" transform="translate(101,81)"/>
<path d="M0 0 C0.680625 0.268125 1.36125 0.53625 2.0625 0.8125 C2.0625 1.4725 2.0625 2.1325 2.0625 2.8125 C3.0525 3.1425 4.0425 3.4725 5.0625 3.8125 C4.49290847 7.43863199 3.13875466 9.06767741 0.5 11.5625 C-0.14066406 12.17609375 -0.78132813 12.7896875 -1.44140625 13.421875 C-1.93511719 13.88078125 -2.42882812 14.3396875 -2.9375 14.8125 C-4.9175 14.1525 -6.8975 13.4925 -8.9375 12.8125 C-8.9375 11.1625 -8.9375 9.5125 -8.9375 7.8125 C-9.5975 7.8125 -10.2575 7.8125 -10.9375 7.8125 C-9.3247711 2.97431329 -5.18948068 -0.33124345 0 0 Z " fill="#EC52AD" transform="translate(84.9375,97.1875)"/>
<path d="M0 0 C0.66 0.33 1.32 0.66 2 1 C2.23737365 9.91469911 1.79362465 18.25607982 0 27 C-0.47050781 26.59007813 -0.94101563 26.18015625 -1.42578125 25.7578125 C-2.04839844 25.21898438 -2.67101562 24.68015625 -3.3125 24.125 C-3.92738281 23.59132813 -4.54226562 23.05765625 -5.17578125 22.5078125 C-7.13498212 20.8359553 -7.13498212 20.8359553 -10 19 C-9.45166034 14.06494309 -5.74931864 11.45776554 -2.125 8.4375 C-1.75375 7.963125 -1.3825 7.48875 -1 7 C-1.29369827 5.65737935 -1.6278958 4.32303717 -2 3 C-1.34 2.01 -0.68 1.02 0 0 Z " fill="#36342B" transform="translate(105,3)"/>
<path d="M0 0 C0.66 0 1.32 0 2 0 C1.98839844 0.59167969 1.97679688 1.18335937 1.96484375 1.79296875 C1.89222006 6.80779566 1.89222006 6.80779566 2.625 11.75 C3.11340807 14.68044845 2.27680079 16.3712925 1 19 C0.01 18.67 -0.98 18.34 -2 18 C-2 17.34 -2 16.68 -2 16 C-2.99 15.9175 -3.98 15.835 -5 15.75 C-9.40761166 15.12933632 -13.27001242 13.41084563 -17 11 C-17.33 10.34 -17.66 9.68 -18 9 C-14.37 9.33 -10.74 9.66 -7 10 C-7 9.34 -7 8.68 -7 8 C-6.01 8 -5.02 8 -4 8 C-3.67 7.01 -3.34 6.02 -3 5 C-2.34 5.66 -1.68 6.32 -1 7 C-0.67 4.69 -0.34 2.38 0 0 Z " fill="#B55780" transform="translate(105,22)"/>
<path d="M0 0 C2.30174017 1.20747025 3.53542252 2.53646564 5.15625 4.5625 C5.67703125 5.20316406 6.1978125 5.84382813 6.734375 6.50390625 C7.12109375 6.99761719 7.5078125 7.49132812 7.90625 8 C7.57625 8.66 7.24625 9.32 6.90625 10 C5.91625 9.34 4.92625 8.68 3.90625 8 C3.57625 9.65 3.24625 11.3 2.90625 13 C-0.06375 13 -3.03375 13 -6.09375 13 C-6.09375 11.02 -6.09375 9.04 -6.09375 7 C-7.08375 7.99 -8.07375 8.98 -9.09375 10 C-9.75375 9.67 -10.41375 9.34 -11.09375 9 C-9.69296602 7.46452525 -8.27254097 5.94694852 -6.84375 4.4375 C-5.66039063 3.16712891 -5.66039063 3.16712891 -4.453125 1.87109375 C-2.09375 0 -2.09375 0 0 0 Z " fill="#524D4B" transform="translate(92.09375,103)"/>
<path d="M0 0 C0.66 0.33 1.32 0.66 2 1 C1.01 2.485 1.01 2.485 0 4 C0.78375 4.12375 1.5675 4.2475 2.375 4.375 C5 5 5 5 7 7 C7.33 6.34 7.66 5.68 8 5 C17.93812655 6.80500162 17.93812655 6.80500162 21 10 C21 10.66 21 11.32 21 12 C21.66 12.33 22.32 12.66 23 13 C14.82746857 13 7.48154826 12.46367975 0 9 C-1.36623674 6.26752652 -1.128426 4.01801098 -1 1 C-0.67 0.67 -0.34 0.34 0 0 Z " fill="#B74C74" transform="translate(47,13)"/>
<path d="M0 0 C0.66 0.33 1.32 0.66 2 1 C2.33 4.96 2.66 8.92 3 13 C-6.9 13 -16.8 13 -27 13 C-26.67 12.34 -26.34 11.68 -26 11 C-21.71 11 -17.42 11 -13 11 C-12.67 10.34 -12.34 9.68 -12 9 C-10.84951172 8.81630859 -10.84951172 8.81630859 -9.67578125 8.62890625 C-6.31234783 7.83837664 -5.33524648 6.5905986 -3.1875 3.9375 C-2.58292969 3.20402344 -1.97835937 2.47054687 -1.35546875 1.71484375 C-0.68451172 0.86599609 -0.68451172 0.86599609 0 0 Z " fill="#DF4AA2" transform="translate(102,115)"/>
<path d="M0 0 C0.33 0 0.66 0 1 0 C1 1.98 1 3.96 1 6 C2.6626783 6.35268934 4.33065717 6.68033861 6 7 C7.093125 7.226875 8.18625 7.45375 9.3125 7.6875 C13.76141277 8.06452651 16.74389375 7.26936502 21 6 C21 10.29 21 14.58 21 19 C21.66 19 22.32 19 23 19 C23 15.37 23 11.74 23 8 C23.33 8 23.66 8 24 8 C24 11.96 24 15.92 24 20 C14.76 20 5.52 20 -4 20 C-4 19.67 -4 19.34 -4 19 C3.92 19 11.84 19 20 19 C20 15.37 20 11.74 20 8 C19.154375 8.515625 18.30875 9.03125 17.4375 9.5625 C13.34097622 11.27559176 11.26991846 11.02794333 7 10 C4.5625 8.9375 4.5625 8.9375 3 8 C1.41727399 9.58272601 1.65264253 11.38034003 1.4375 13.5625 C1.35371094 14.38878906 1.26992188 15.21507813 1.18359375 16.06640625 C1.12300781 16.70449219 1.06242187 17.34257813 1 18 C0.67 18 0.34 18 0 18 C0 12.06 0 6.12 0 0 Z " fill="#BC4A85" transform="translate(34,108)"/>
<path d="M0 0 C2.04261173 1.85785288 3.39624438 3.71586321 5 6 C4.67 6.66 4.34 7.32 4 8 C-2.46761055 8.33453158 -6.84096314 7.84313318 -11.875 3.3125 C-12.24625 2.879375 -12.6175 2.44625 -13 2 C-8.27318011 -0.88220725 -5.356258 -1.65557066 0 0 Z " fill="#403257" transform="translate(60,90)"/>
<path d="M0 0 C1.32 0.99 2.64 1.98 4 3 C4.33 2.01 4.66 1.02 5 0 C7.58373234 0.30944701 10.16695133 0.62243957 12.75 0.9375 C13.47960938 1.02451172 14.20921875 1.11152344 14.9609375 1.20117188 C18.37584442 1.62027409 21.67603543 2.117274 25 3 C24.67 3.99 24.34 4.98 24 6 C21.4375 7.1875 21.4375 7.1875 19 8 C19 7.34 19 6.68 19 6 C14.71 5.34 10.42 4.68 6 4 C6.33 5.32 6.66 6.64 7 8 C3.88045262 7.66275164 2.3790035 7.3790035 0.125 5.125 C-0.24625 4.42375 -0.6175 3.7225 -1 3 C-0.67 2.01 -0.34 1.02 0 0 Z " fill="#CD498B" transform="translate(29,84)"/>
<path d="M0 0 C0.33 1.32 0.66 2.64 1 4 C0.34 4 -0.32 4 -1 4 C-1.33 5.32 -1.66 6.64 -2 8 C-1.401875 8.12375 -0.80375 8.2475 -0.1875 8.375 C2 9 2 9 5 11 C6.99212671 12.01559401 8.9911515 13.01789629 11 14 C7.93753253 15.78409802 5.77920727 16.22880021 2.25 16.125 C1.45078125 16.10695313 0.6515625 16.08890625 -0.171875 16.0703125 C-0.77515625 16.04710938 -1.3784375 16.02390625 -2 16 C-2.33 16.99 -2.66 17.98 -3 19 C-3.66 19 -4.32 19 -5 19 C-4.67 17.68 -4.34 16.36 -4 15 C-4.66 15 -5.32 15 -6 15 C-6.37815631 10.62756771 -5.34305827 8.34852855 -3 4.6875 C-2.1646875 3.36298828 -2.1646875 3.36298828 -1.3125 2.01171875 C-0.879375 1.34785156 -0.44625 0.68398437 0 0 Z " fill="#E24CA7" transform="translate(15,102)"/>
<path d="M0 0 C7 8.44827586 7 8.44827586 7 12 C2.38 12 -2.24 12 -7 12 C-5.55244413 9.10488827 -4.09685983 6.46872604 -2.375 3.75 C-1.92898437 3.04359375 -1.48296875 2.3371875 -1.0234375 1.609375 C-0.68570313 1.07828125 -0.34796875 0.5471875 0 0 Z " fill="#AC497E" transform="translate(67,116)"/>
<path d="M0 0 C0.928125 0.185625 1.85625 0.37125 2.8125 0.5625 C3.534375 0.706875 4.25625 0.85125 5 1 C4.34 3.31 3.68 5.62 3 8 C1 8 1 8 -0.625 6.625 C-2 5 -2 5 -2 3 C-5.76073083 2.4301923 -7.69186648 3.23794764 -10.6875 5.375 C-12.61360109 6.83559107 -14.28587447 8.28587447 -16 10 C-16.33 8.02 -16.66 6.04 -17 4 C-15.11157486 3.12957757 -13.21388098 2.27924526 -11.3125 1.4375 C-10.25675781 0.96183594 -9.20101562 0.48617187 -8.11328125 -0.00390625 C-4.77913911 -1.0706644 -3.29273916 -0.99233235 0 0 Z " fill="#CF498F" transform="translate(89,95)"/>
<path d="M0 0 C0.66 0 1.32 0 2 0 C1.47731534 2.76276177 0.89130413 5.3260876 0 8 C-0.66 8 -1.32 8 -2 8 C-2 8.66 -2 9.32 -2 10 C-2.66 10 -3.32 10 -4 10 C-3.896875 10.72574219 -3.79375 11.45148438 -3.6875 12.19921875 C-4.13209804 16.1839287 -5.97871722 17.28217567 -9 19.8125 C-9.928125 20.60269531 -10.85625 21.39289063 -11.8125 22.20703125 C-12.534375 22.79871094 -13.25625 23.39039062 -14 24 C-19.75 22.25 -19.75 22.25 -22 20 C-19 20 -19 20 -16.75 20.9375 C-13.30539578 21.01578646 -12.7162279 20.24200804 -10.25 17.9375 C-7.31735893 14.76948426 -6.10794741 12.42584375 -6 8 C-10.455 9.485 -10.455 9.485 -15 11 C-14.67 10.34 -14.34 9.68 -14 9 C-13.34 9 -12.68 9 -12 9 C-12 8.34 -12 7.68 -12 7 C-8.7 6.34 -5.4 5.68 -2 5 C-2 4.34 -2 3.68 -2 3 C-1.34 3 -0.68 3 0 3 C0 2.01 0 1.02 0 0 Z " fill="#A74366" transform="translate(107,73)"/>
<path d="M0 0 C4.71974522 2.29936306 4.71974522 2.29936306 6 5.5 C6 8 6 8 4.9375 9.8125 C2.06717933 11.5717288 0.35174161 11.37241573 -3 11 C-6.05197568 10.13228142 -9.0281071 9.10950668 -12 8 C-8.90226756 7.15937603 -6.21667249 6.91064799 -3 7 C-1.79371992 4.66785852 -0.8345262 2.50357861 0 0 Z " fill="#DD4C9D" transform="translate(95,22)"/>
<path d="M0 0 C0.66 0.33 1.32 0.66 2 1 C1.43410156 1.39832031 0.86820313 1.79664062 0.28515625 2.20703125 C-0.44832031 2.73683594 -1.18179688 3.26664062 -1.9375 3.8125 C-2.66839844 4.33457031 -3.39929688 4.85664062 -4.15234375 5.39453125 C-6.26883226 6.95867127 -6.26883226 6.95867127 -7 10 C-6.34 10 -5.68 10 -5 10 C-5 10.66 -5 11.32 -5 12 C-5.598125 11.814375 -6.19625 11.62875 -6.8125 11.4375 C-9.16408762 10.77906313 -9.16408762 10.77906313 -12 12 C-12 11.34 -12 10.68 -12 10 C-12.99 10 -13.98 10 -15 10 C-15 8.68 -15 7.36 -15 6 C-15.99 6 -16.98 6 -18 6 C-18 5.34 -18 4.68 -18 4 C-17.34 4 -16.68 4 -16 4 C-15.67 3.34 -15.34 2.68 -15 2 C-15 2.99 -15 3.98 -15 5 C-13.68 5.33 -12.36 5.66 -11 6 C-10.67 5.01 -10.34 4.02 -10 3 C-9.46375 3.2475 -8.9275 3.495 -8.375 3.75 C-4.71245136 4.13553144 -2.84242621 2.13181966 0 0 Z " fill="#373129" transform="translate(38,68)"/>
<path d="M0 0 C6.40140935 0.46555704 11.26769829 2.14711836 17 5 C17 6.98 17 8.96 17 11 C14.03 11 11.06 11 8 11 C8.66 9.68 9.32 8.36 10 7 C9.01 6.67 8.02 6.34 7 6 C7 4.68 7 3.36 7 2 C4.69 1.67 2.38 1.34 0 1 C0 0.67 0 0.34 0 0 Z " fill="#27231C" transform="translate(13,117)"/>
<path d="M0 0 C0.84691406 0.11988281 1.69382812 0.23976563 2.56640625 0.36328125 C4.44429924 -0.93952305 4.44429924 -0.93952305 5.56640625 -2.63671875 C6.55640625 -2.30671875 7.54640625 -1.97671875 8.56640625 -1.63671875 C8.28796875 -0.46109375 8.28796875 -0.46109375 8.00390625 0.73828125 C7.30678359 3.334179 7.30678359 3.334179 8.56640625 5.36328125 C2.56640625 3.36328125 2.56640625 3.36328125 0.62109375 2.59765625 C-5.37007554 0.3426774 -10.63766699 -0.00615466 -16.99609375 0.17578125 C-18.36604492 0.19608398 -18.36604492 0.19608398 -19.76367188 0.21679688 C-21.98762634 0.2517281 -24.21027327 0.30076539 -26.43359375 0.36328125 C-18.301531 -5.05809392 -8.76753338 -2.77771918 0 0 Z " fill="#94685F" transform="translate(78.43359375,10.63671875)"/>
<path d="M0 0 C0.61875 0.825 1.2375 1.65 1.875 2.5 C3.80907007 4.49013007 4.76250807 4.96918044 7.55859375 5.33203125 C10.0555153 5.31432259 12.51289435 5.21731991 15 5 C15 5.66 15 6.32 15 7 C15.66 7 16.32 7 17 7 C16.3125 8.9375 16.3125 8.9375 15 11 C11.70572419 12.09809194 10.33588828 12.11196276 7 11 C5.17578125 9.2578125 5.17578125 9.2578125 3.3125 7.125 C2.68988281 6.42632812 2.06726563 5.72765625 1.42578125 5.0078125 C0 3 0 3 0 0 Z " fill="#7C5E54" transform="translate(80,113)"/>
<path d="M0 0 C2.97 0.495 2.97 0.495 6 1 C6 2.65 6 4.3 6 6 C6.99 6 7.98 6 9 6 C9 5.01 9 4.02 9 3 C10.65 3.33 12.3 3.66 14 4 C12.125 7.875 12.125 7.875 11 9 C7.6875 9.375 7.6875 9.375 4 9 C1.5625 6.75 1.5625 6.75 0 4 C0 2.68 0 1.36 0 0 Z " fill="#D8911D" transform="translate(45,47)"/>
<path d="M0 0 C0.66 0 1.32 0 2 0 C1.690625 0.804375 1.38125 1.60875 1.0625 2.4375 C-0.18565517 6.62249087 -0.6337696 10.66306101 -1 15 C-0.34 15.33 0.32 15.66 1 16 C1 17.98 1 19.96 1 22 C0.34 22 -0.32 22 -1 22 C-1.33 22.66 -1.66 23.32 -2 24 C-2.33 20.7 -2.66 17.4 -3 14 C-4.98 15.32 -6.96 16.64 -9 18 C-8.690625 17.401875 -8.38125 16.80375 -8.0625 16.1875 C-6.89790296 13.91043228 -6.89790296 13.91043228 -6 11 C-5.34 10.67 -4.68 10.34 -4 10 C-3.53476937 8.10466658 -3.53476937 8.10466658 -3.375 5.9375 C-3.25125 4.638125 -3.1275 3.33875 -3 2 C-2.01 2 -1.02 2 0 2 C0 1.34 0 0.68 0 0 Z " fill="#A7486D" transform="translate(106,102)"/>
<path d="M0 0 C-0.66 0.66 -1.32 1.32 -2 2 C-2 2.99 -2 3.98 -2 5 C0.475 5.99 0.475 5.99 3 7 C3 7.33 3 7.66 3 8 C1.02 8 -0.96 8 -3 8 C-2.67 8.33 -2.34 8.66 -2 9 C-3.32 9.33 -4.64 9.66 -6 10 C-6 9.34 -6 8.68 -6 8 C-8.475 7.01 -8.475 7.01 -11 6 C-10.4375 3.625 -10.4375 3.625 -9 1 C-2.84 -1.42 -2.84 -1.42 0 0 Z " fill="#D74D97" transform="translate(58,11)"/>
<path d="M0 0 C3.43734063 -0.08703823 6.87439837 -0.14040272 10.3125 -0.1875 C11.28896484 -0.21263672 12.26542969 -0.23777344 13.27148438 -0.26367188 C14.20927734 -0.27333984 15.14707031 -0.28300781 16.11328125 -0.29296875 C16.97735596 -0.3086792 17.84143066 -0.32438965 18.73168945 -0.34057617 C21 0 21 0 22.81445312 1.26757812 C24.31324799 3.4577446 24.22691717 4.4115798 23.85546875 7.01171875 C23.75556641 7.76904297 23.65566406 8.52636719 23.55273438 9.30664062 C23.43220703 10.09232422 23.31167969 10.87800781 23.1875 11.6875 C23.02411133 12.88342773 23.02411133 12.88342773 22.85742188 14.10351562 C22.58643601 16.07110863 22.29514792 18.03588613 22 20 C21.34 20 20.68 20 20 20 C20 13.73 20 7.46 20 1 C13.4 1 6.8 1 0 1 C0 0.67 0 0.34 0 0 Z " fill="#CD489C" transform="translate(35,107)"/>
<path d="M0 0 C1.65 0 3.3 0 5 0 C4.6875 2.875 4.6875 2.875 4 6 C0.53076119 8.31282587 -0.92205575 8.42478586 -5 8 C-6.875 6.625 -6.875 6.625 -8 5 C-8 4.34 -8 3.68 -8 3 C-6.35 2.67 -4.7 2.34 -3 2 C-3 2.99 -3 3.98 -3 5 C-2.34 5 -1.68 5 -1 5 C-0.67 3.35 -0.34 1.7 0 0 Z " fill="#CB881B" transform="translate(84,48)"/>
<path d="M0 0 C-0.0721875 0.89203125 -0.144375 1.7840625 -0.21875 2.703125 C-0.3115625 3.87359375 -0.404375 5.0440625 -0.5 6.25 C-0.5928125 7.41015625 -0.685625 8.5703125 -0.78125 9.765625 C-0.94404644 12.17268658 -1 14.58743951 -1 17 C-1.66 17 -2.32 17 -3 17 C-3.66 17.66 -4.32 18.32 -5 19 C-6.57680872 7.02477701 -6.57680872 7.02477701 -4 2 C-1 0 -1 0 0 0 Z " fill="#4F396D" transform="translate(64,104)"/>
<path d="M0 0 C-2.91765 1.9451 -4.62537285 2.45276317 -8 3 C-8.33 3.99 -8.66 4.98 -9 6 C-10.96134888 6.55571552 -12.92846548 7.10069675 -14.921875 7.52734375 C-17.40467642 8.09204107 -19.67057249 8.98087547 -22 10 C-18.15227901 4.85561113 -15.1279131 2.0426377 -9 0 C-8.29875 -0.2475 -7.5975 -0.495 -6.875 -0.75 C-4.41734127 -1.07768783 -2.38864027 -0.59716007 0 0 Z " fill="#9B455D" transform="translate(91,84)"/>
<path d="M0 0 C1.89435556 3.28354963 2.69136965 6.21927824 3 10 C2 12.5 2 12.5 1 15 C1.31421071 17.00309329 1.6451046 19.00371336 2 21 C0 23 0 23 -3 24 C-3 23.34 -3 22.68 -3 22 C-3.66 21.67 -4.32 21.34 -5 21 C-4.34 20.67 -3.68 20.34 -3 20 C-2.67 19.34 -2.34 18.68 -2 18 C-1.67 18.33 -1.34 18.66 -1 19 C-1.66 15.04 -2.32 11.08 -3 7 C-2 7 -1 7 0 7 C0 4.69 0 2.38 0 0 Z " fill="#DB4B9B" transform="translate(27,90)"/>
<path d="M0 0 C1.13598633 0.00483398 1.13598633 0.00483398 2.29492188 0.00976562 C3.47344727 0.02233398 3.47344727 0.02233398 4.67578125 0.03515625 C5.47306641 0.03966797 6.27035156 0.04417969 7.09179688 0.04882812 C9.05732382 0.06059775 11.0228121 0.07853277 12.98828125 0.09765625 C13.31828125 1.74765625 13.64828125 3.39765625 13.98828125 5.09765625 C13.28316406 4.91332031 12.57804687 4.72898437 11.8515625 4.5390625 C8.65596804 4.04642652 6.33256912 4.38858524 3.17578125 5.03515625 C2.19996094 5.22980469 1.22414063 5.42445312 0.21875 5.625 C-0.88533203 5.85896484 -0.88533203 5.85896484 -2.01171875 6.09765625 C0.39167897 3.33374888 1.15091803 3.05699706 4.98828125 2.09765625 C0.36828125 2.42765625 -4.25171875 2.75765625 -9.01171875 3.09765625 C-6.18838543 0.27432293 -3.82529272 -0.0287616 0 0 Z " fill="#3D3A32" transform="translate(43.01171875,61.90234375)"/>
<path d="M0 0 C3.63 0.33 7.26 0.66 11 1 C10.34 1.66 9.68 2.32 9 3 C8.35232207 5.57061311 8.35232207 5.57061311 8 8 C5.23723823 7.47731534 2.6739124 6.89130413 0 6 C0 4.02 0 2.04 0 0 Z " fill="#F057B3" transform="translate(35,108)"/>
<path d="M0 0 C-1.44245971 3.36573933 -3.083468 5.75010389 -6 8 C-8.625 8 -8.625 8 -11 7 C-12.1484375 4.9375 -12.1484375 4.9375 -13 3 C-11.2092015 2.49689942 -9.41733089 1.99761372 -7.625 1.5 C-6.62726563 1.2215625 -5.62953125 0.943125 -4.6015625 0.65625 C-2 0 -2 0 0 0 Z " fill="#EC50B0" transform="translate(99,87)"/>
<path d="M0 0 C6.42857143 4.14285714 6.42857143 4.14285714 9 7 C8.67 7.66 8.34 8.32 8 9 C7.01 8.01 6.02 7.02 5 6 C4.01 7.485 4.01 7.485 3 9 C1.02 8.34 -0.96 7.68 -3 7 C-2.25 2.25 -2.25 2.25 0 0 Z " fill="#4E443E" transform="translate(91,104)"/>
<path d="M0 0 C0.66 0.33 1.32 0.66 2 1 C2.042721 2.66611905 2.04063832 4.33382885 2 6 C1.67 6.33 1.34 6.66 1 7 C1.28730055 9.33944736 1.61936779 11.6739143 2 14 C1.34 14 0.68 14 0 14 C0.66 15.65 1.32 17.3 2 19 C1.01 19 0.02 19 -1 19 C-1 19.99 -1 20.98 -1 22 C-1.66 22 -2.32 22 -3 22 C-2.67 18.7 -2.34 15.4 -2 12 C-1.34 12 -0.68 12 0 12 C-0.16757813 11.38511719 -0.33515625 10.77023438 -0.5078125 10.13671875 C-0.71148437 9.32847656 -0.91515625 8.52023438 -1.125 7.6875 C-1.33382812 6.88699219 -1.54265625 6.08648437 -1.7578125 5.26171875 C-2 3 -2 3 0 0 Z " fill="#64625A" transform="translate(113,53)"/>
<path d="M0 0 C1.485 0.99 1.485 0.99 3 2 C5.84120234 1.64484971 8.28047752 0.90650749 11 0 C14.1875 1.875 14.1875 1.875 17 4 C17 4.33 17 4.66 17 5 C14.73213358 5.27561917 12.46041721 5.51971457 10.1875 5.75 C8.29064453 5.95882812 8.29064453 5.95882812 6.35546875 6.171875 C3 6 3 6 1.05078125 4.140625 C0 2 0 2 0 0 Z " fill="#C84985" transform="translate(36,92)"/>
<path d="M0 0 C0.66 0 1.32 0 2 0 C2.09945415 6.11090483 2.0712828 11.97403427 1 18 C0.67 17.34 0.34 16.68 0 16 C-2.3140622 15.26924352 -4.64828869 14.59861742 -7 14 C-7 13.67 -7 13.34 -7 13 C-5.02 13 -3.04 13 -1 13 C-1.66 11.68 -2.32 10.36 -3 9 C-2.01 9 -1.02 9 0 9 C0 6.03 0 3.06 0 0 Z " fill="#AF446C" transform="translate(30,106)"/>
<path d="M0 0 C2.64 0 5.28 0 8 0 C7.690625 0.845625 7.38125 1.69125 7.0625 2.5625 C5.98461179 6.0497854 5.43418696 9.38177535 5 13 C4.67 13 4.34 13 4 13 C3.67 10.69 3.34 8.38 3 6 C2.01 6.495 2.01 6.495 1 7 C0.67 6.01 0.34 5.02 0 4 C-0.66 4.66 -1.32 5.32 -2 6 C-1.49396008 3.83125748 -1.00016187 2.00032373 0 0 Z " fill="#292841" transform="translate(63,101)"/>
<path d="M0 0 C1.625 1 1.625 1 3 3 C2.65009645 5.8158905 1.84980278 8.2716858 1 11 C1.99 11 2.98 11 4 11 C3.1875 12.9375 3.1875 12.9375 2 15 C1.01 15.33 0.02 15.66 -1 16 C-2.14617462 10.69894239 -1.89309624 6.35857745 -1 1 C-0.67 0.67 -0.34 0.34 0 0 Z " fill="#5B5952" transform="translate(20,54)"/>
<path d="M0 0 C5.75762166 1.08896667 11.39247819 2.29336293 17 4 C17 5.65 17 7.3 17 9 C16.67 8.34 16.34 7.68 16 7 C14.4840625 6.814375 14.4840625 6.814375 12.9375 6.625 C8.43388546 5.91014055 4.82717594 4.4736625 1 2 C0.67 1.34 0.34 0.68 0 0 Z " fill="#BA496F" transform="translate(87,31)"/>
<path d="M0 0 C1.98 0 3.96 0 6 0 C6.33 0.66 6.66 1.32 7 2 C9.12576782 2.46651207 9.12576782 2.46651207 11.5625 2.625 C12.38878906 2.69976562 13.21507813 2.77453125 14.06640625 2.8515625 C14.70449219 2.90054688 15.34257813 2.94953125 16 3 C16 3.33 16 3.66 16 4 C6.1 4 -3.8 4 -14 4 C-13.67 3.34 -13.34 2.68 -13 2 C-8.71 2 -4.42 2 0 2 C0 1.34 0 0.68 0 0 Z " fill="#C14C92" transform="translate(89,124)"/>
<path d="M0 0 C2.4725313 0.53329106 4.63388418 1.15995888 7 2 C8.08861328 2.34804688 8.08861328 2.34804688 9.19921875 2.703125 C11.16966275 3.36819407 13.09020239 4.17681137 15 5 C15.33 5.99 15.66 6.98 16 8 C9.0886636 7.52877252 3.27795839 4.79363994 -3 2 C-2.01 1.34 -1.02 0.68 0 0 Z " fill="#95414F" transform="translate(88,33)"/>
<path d="M0 0 C0 3.67317632 -0.42501581 5.60134991 -2 9 C-5 11 -5 11 -7.1875 10.625 C-7.785625 10.41875 -8.38375 10.2125 -9 10 C-9 9.01 -9 8.02 -9 7 C-7.03125 5.17578125 -7.03125 5.17578125 -4.5 3.3125 C-3.6646875 2.68988281 -2.829375 2.06726563 -1.96875 1.42578125 C-1.3190625 0.95527344 -0.669375 0.48476562 0 0 Z " fill="#3F3C34" transform="translate(97,7)"/>
<path d="M0 0 C2.27246338 2.0913455 3.69102273 4.02258757 5.04296875 6.79296875 C5.39423828 7.50517578 5.74550781 8.21738281 6.10742188 8.95117188 C6.46384766 9.68916016 6.82027344 10.42714844 7.1875 11.1875 C7.55552734 11.93708984 7.92355469 12.68667969 8.30273438 13.45898438 C9.20728218 15.30332212 10.10437576 17.15131245 11 19 C10.01 19.66 9.02 20.32 8 21 C6 14.375 6 14.375 6 11 C5.38125 10.938125 4.7625 10.87625 4.125 10.8125 C2 10 2 10 0.75 7.625 C-0.00964484 4.96624305 0 2.74140029 0 0 Z " fill="#A8647A" transform="translate(116,98)"/>
<path d="M0 0 C2.64 0 5.28 0 8 0 C8 2.31 8 4.62 8 7 C7.67 6.34 7.34 5.68 7 5 C4.36 5 1.72 5 -1 5 C-0.67 3.35 -0.34 1.7 0 0 Z " fill="#B07214" transform="translate(64,96)"/>
<path d="M0 0 C0.66 0 1.32 0 2 0 C3.38226016 2.76452033 3.09525387 5.0461363 3.0625 8.125 C3.05347656 9.22070312 3.04445313 10.31640625 3.03515625 11.4453125 C3.02355469 12.28835937 3.01195312 13.13140625 3 14 C2.01 14.495 2.01 14.495 1 15 C1 14.34 1 13.68 1 13 C0.01 13 -0.98 13 -2 13 C-1.34 8.71 -0.68 4.42 0 0 Z M0 5 C1 7 1 7 1 7 Z " fill="#626158" transform="translate(28,28)"/>
<path d="M0 0 C1.19882813 -0.00515625 2.39765625 -0.0103125 3.6328125 -0.015625 C6.65870687 0.2322796 8.33825761 0.65980328 10.875 2.25 C9.21885343 2.63218767 7.55042976 2.96395102 5.875 3.25 C5.545 2.92 5.215 2.59 4.875 2.25 C3.36030552 2.01807135 1.83745438 1.83784762 0.3125 1.6875 C-0.51378906 1.60371094 -1.34007812 1.51992187 -2.19140625 1.43359375 C-2.82949219 1.37300781 -3.46757813 1.31242188 -4.125 1.25 C-3.795 2.24 -3.465 3.23 -3.125 4.25 C-5.105 4.91 -7.085 5.57 -9.125 6.25 C-9.125 5.26 -9.125 4.27 -9.125 3.25 C-10.445 2.92 -11.765 2.59 -13.125 2.25 C-8.60825636 0.50960337 -4.83208948 -0.02087296 0 0 Z " fill="#E850AA" transform="translate(65.125,9.75)"/>
<path d="M0 0 C0.33 1.32 0.66 2.64 1 4 C0.34 4 -0.32 4 -1 4 C-1.66 6.31 -2.32 8.62 -3 11 C-3.66 11 -4.32 11 -5 11 C-5 11.66 -5 12.32 -5 13 C-2.69 13.33 -0.38 13.66 2 14 C1.360625 14.268125 0.72125 14.53625 0.0625 14.8125 C-2.33131686 15.88667752 -2.33131686 15.88667752 -3 19 C-3.66 19 -4.32 19 -5 19 C-4.67 17.68 -4.34 16.36 -4 15 C-4.66 15 -5.32 15 -6 15 C-6.37815631 10.62756771 -5.34305827 8.34852855 -3 4.6875 C-2.1646875 3.36298828 -2.1646875 3.36298828 -1.3125 2.01171875 C-0.879375 1.34785156 -0.44625 0.68398437 0 0 Z " fill="#9A656F" transform="translate(15,102)"/>
<path d="M0 0 C0.99 0 1.98 0 3 0 C4.42944945 2.35438733 5.08661261 3.48032433 4.625 6.25 C4.41875 6.8275 4.2125 7.405 4 8 C3.34 7.01 2.68 6.02 2 5 C1.896875 5.639375 1.79375 6.27875 1.6875 6.9375 C1.460625 7.618125 1.23375 8.29875 1 9 C0.01 9.33 -0.98 9.66 -2 10 C-1.85950482 8.52031676 -1.71245174 7.04125484 -1.5625 5.5625 C-1.48128906 4.73878906 -1.40007812 3.91507812 -1.31640625 3.06640625 C-1 1 -1 1 0 0 Z " fill="#383057" transform="translate(70,103)"/>
<path d="M0 0 C5.28776943 0.33048559 9.24100622 3.48352195 13 7 C13 7.66 13 8.32 13 9 C13.99 9.33 14.98 9.66 16 10 C13.9375 10.375 13.9375 10.375 11 10 C9.10304173 8.58998414 7.43620981 7.06123961 5.74609375 5.41015625 C3.82722286 3.8604641 2.4068562 3.41606486 0 3 C0 2.01 0 1.02 0 0 Z " fill="#7C5141" transform="translate(54,86)"/>
<path d="M0 0 C1.32 0.33 2.64 0.66 4 1 C1.525 5.455 1.525 5.455 -1 10 C-1.66 10 -2.32 10 -3 10 C-3.33 8.35 -3.66 6.7 -4 5 C-2.68 4.34 -1.36 3.68 0 3 C0 2.01 0 1.02 0 0 Z " fill="#3D3B33" transform="translate(12,118)"/>
<path d="M0 0 C0 0.66 0 1.32 0 2 C0.53625 1.649375 1.0725 1.29875 1.625 0.9375 C4.73274763 -0.28924249 6.79431703 0.27143569 10 1 C7.31912713 2.60852372 5.47959733 3.07056307 2.3125 3.5 C0.6728125 3.7475 0.6728125 3.7475 -1 4 C-1.33 4.66 -1.66 5.32 -2 6 C-2.99 5.01 -3.98 4.02 -5 3 C-2.25 0 -2.25 0 0 0 Z " fill="#D74A99" transform="translate(87,86)"/>
<path d="M0 0 C6.20988129 0.44356295 10.60540561 1.91532502 16 5 C14.66666667 5.33333333 13.33333333 5.66666667 12 6 C10.88625 6.2784375 10.88625 6.2784375 9.75 6.5625 C8.88375 6.7790625 8.88375 6.7790625 8 7 C7.67 5.35 7.34 3.7 7 2 C4.69 1.67 2.38 1.34 0 1 C0 0.67 0 0.34 0 0 Z " fill="#181F12" transform="translate(13,117)"/>
<path d="M0 0 C0.680625 0.825 1.36125 1.65 2.0625 2.5 C4.84478007 5.36068704 4.84478007 5.36068704 8.8125 5.3125 C9.864375 5.209375 10.91625 5.10625 12 5 C12 5.99 12 6.98 12 8 C10.68 8 9.36 8 8 8 C8.33 8.99 8.66 9.98 9 11 C7 11 7 11 5.2734375 9.35546875 C4.64695312 8.64003906 4.02046875 7.92460938 3.375 7.1875 C2.74335937 6.47980469 2.11171875 5.77210937 1.4609375 5.04296875 C0 3 0 3 0 0 Z " fill="#736253" transform="translate(80,113)"/>
<path d="M0 0 C0.66 0 1.32 0 2 0 C2 1.65 2 3.3 2 5 C2.99 4.67 3.98 4.34 5 4 C5.66 5.32 6.32 6.64 7 8 C6.01 8.66 5.02 9.32 4 10 C3.42006301 12.19454681 3.42006301 12.19454681 3.3125 14.625 C3.24675781 15.44226563 3.18101563 16.25953125 3.11328125 17.1015625 C3.05720703 18.04128906 3.05720703 18.04128906 3 19 C2.67 19 2.34 19 2 19 C1.93941406 18.13117188 1.87882812 17.26234375 1.81640625 16.3671875 C1.73261719 15.21476562 1.64882812 14.06234375 1.5625 12.875 C1.48128906 11.73804687 1.40007812 10.60109375 1.31640625 9.4296875 C1.02269035 6.2459522 0.56875687 3.14489093 0 0 Z " fill="#D2499D" transform="translate(74,105)"/>
<path d="M0 0 C-0.33 1.98 -0.66 3.96 -1 6 C-1.66 6 -2.32 6 -3 6 C-3.33 7.98 -3.66 9.96 -4 12 C-4.99 11.67 -5.98 11.34 -7 11 C-6.67 10.278125 -6.34 9.55625 -6 8.8125 C-4.99396471 5.98302573 -4.83022598 3.97104534 -5 1 C-2 0 -2 0 0 0 Z " fill="#5B5951" transform="translate(27,42)"/>
<path d="M0 0 C-2.31881505 2.67901932 -4.31814468 3.66204403 -7.6875 4.6875 C-8.89986328 5.06455078 -8.89986328 5.06455078 -10.13671875 5.44921875 C-11.05904297 5.72185547 -11.05904297 5.72185547 -12 6 C-11.7421875 4.11328125 -11.7421875 4.11328125 -11 2 C-9.2578125 0.91796875 -9.2578125 0.91796875 -7.125 0.1875 C-6.42632812 -0.06644531 -5.72765625 -0.32039063 -5.0078125 -0.58203125 C-3 -1 -3 -1 0 0 Z " fill="#483563" transform="translate(85,93)"/>
<path d="M0 0 C2.31 0 4.62 0 7 0 C7.33 0.66 7.66 1.32 8 2 C6.3125 4.0625 6.3125 4.0625 4 6 C1.25 5.75 1.25 5.75 -1 5 C-1 4.01 -1 3.02 -1 2 C-0.01 2 0.98 2 2 2 C1.34 1.34 0.68 0.68 0 0 Z " fill="#45356B" transform="translate(52,91)"/>
<path d="M0 0 C0.33 0 0.66 0 1 0 C1.33 2.31 1.66 4.62 2 7 C2.99 6.67 3.98 6.34 5 6 C5 6.66 5 7.32 5 8 C5.99 7.67 6.98 7.34 8 7 C8 7.66 8 8.32 8 9 C6.02 9.66 4.04 10.32 2 11 C-0.26881841 7.91440696 -1.05451946 6.57790624 -0.6875 2.6875 C-0.460625 1.800625 -0.23375 0.91375 0 0 Z " fill="#D54A91" transform="translate(106,106)"/>
<path d="M0 0 C2.875 0.25 2.875 0.25 6 1 C7.25 3 7.25 3 8 5 C8.66 5.33 9.32 5.66 10 6 C4.30769231 6 4.30769231 6 2 5 C0.75 2.4375 0.75 2.4375 0 0 Z " fill="#C04978" transform="translate(60,20)"/>
<path d="M0 0 C2.5654594 2.5654594 2.54046087 4.47686668 3 8 C2.01 7.67 1.02 7.34 0 7 C-0.2475 7.598125 -0.495 8.19625 -0.75 8.8125 C-2.16370012 11.28647521 -3.65055383 12.43370255 -6 14 C-6 10.61947781 -5.56634911 10.11130525 -3.5625 7.5625 C-1.59808236 5.06080574 -0.59983656 3.13707627 0 0 Z " fill="#945D63" transform="translate(29,78)"/>
<path d="M0 0 C2.0625 0.4375 2.0625 0.4375 4 1 C3.23925157 2.62974564 2.46601567 4.25366648 1.6875 5.875 C1.25824219 6.77992187 0.82898438 7.68484375 0.38671875 8.6171875 C-1 11 -1 11 -4 13 C-7.1875 12.625 -7.1875 12.625 -10 12 C-10 11.67 -10 11.34 -10 11 C-8.741875 10.814375 -7.48375 10.62875 -6.1875 10.4375 C-3.58129396 9.8147782 -2.36939111 9.52099789 -0.80078125 7.30859375 C0.12538373 5.16740924 0.12538373 5.16740924 1 2 C0.34 1.67 -0.32 1.34 -1 1 C-0.67 0.67 -0.34 0.34 0 0 Z " fill="#161817" transform="translate(89,45)"/>
<path d="M0 0 C1.5625 1.25 1.5625 1.25 3 3 C2.625 5 2.625 5 2 7 C2.33 7.99 2.66 8.98 3 10 C2.34 10 1.68 10 1 10 C0.34 10.66 -0.32 11.32 -1 12 C-1.02712066 10.56260487 -1.04645067 9.12506137 -1.0625 7.6875 C-1.07410156 6.88699219 -1.08570313 6.08648437 -1.09765625 5.26171875 C-1 3 -1 3 0 0 Z " fill="#513C7A" transform="translate(60,111)"/>
<path d="M0 0 C0.99 0.33 1.98 0.66 3 1 C2.814375 1.78375 2.62875 2.5675 2.4375 3.375 C1.74037734 5.97089775 1.74037734 5.97089775 3 8 C1.02 7.34 -0.96 6.68 -3 6 C-2.42655063 3.13275314 -2.1385485 2.1385485 0 0 Z " fill="#A2626E" transform="translate(84,8)"/>
<path d="M0 0 C0.33 0 0.66 0 1 0 C1.2493357 1.60115576 1.47378648 3.20620159 1.6875 4.8125 C1.81511719 5.70582031 1.94273438 6.59914063 2.07421875 7.51953125 C2 10 2 10 0.51953125 11.82421875 C-0.23263672 12.40623047 -0.23263672 12.40623047 -1 13 C-1 11.35 -1 9.7 -1 8 C-1.66 7.67 -2.32 7.34 -3 7 C-2.25 2.25 -2.25 2.25 0 0 Z " fill="#3B2D50" transform="translate(66,106)"/>
<path d="M0 0 C2.61530876 0.36073224 3.79749727 0.79749727 5.6875 2.6875 C7.25600896 5.4510634 7.64343804 7.86225474 8 11 C7.01 11 6.02 11 5 11 C4.80664062 10.37351562 4.61328125 9.74703125 4.4140625 9.1015625 C4.15367188 8.28429687 3.89328125 7.46703125 3.625 6.625 C3.36976562 5.81289062 3.11453125 5.00078125 2.8515625 4.1640625 C2.10145717 1.83540815 2.10145717 1.83540815 0 0 Z " fill="#4F4943" transform="translate(120,117)"/>
<path d="M0 0 C0.66 0.66 1.32 1.32 2 2 C1.67028521 5.29714793 1.3773161 6.6226839 -1 9 C-1.99 9 -2.98 9 -4 9 C-3.67 7.68 -3.34 6.36 -3 5 C-2.34 5 -1.68 5 -1 5 C-0.67 3.35 -0.34 1.7 0 0 Z " fill="#493771" transform="translate(72,107)"/>
<path d="M0 0 C2.97 0.33 5.94 0.66 9 1 C9.36923077 5.55384615 9.36923077 5.55384615 7.5 7.8125 C7.005 8.204375 6.51 8.59625 6 9 C6 7.02 6 5.04 6 3 C3.03 2.505 3.03 2.505 0 2 C0 1.34 0 0.68 0 0 Z " fill="#C4498D" transform="translate(54,97)"/>
<path d="M0 0 C0.33 0.66 0.66 1.32 1 2 C-2.2837938 4.48772258 -3.61198583 5.03180444 -7.8125 4.6875 C-9.3903125 4.3471875 -9.3903125 4.3471875 -11 4 C-7.04396675 0.96704118 -5.03239385 -0.13243142 0 0 Z " fill="#332D48" transform="translate(58,89)"/>
<path d="M0 0 C0.66 0 1.32 0 2 0 C1.38545304 3.99455527 -0.70646737 6.74466336 -3 10 C-3.66 9.67 -4.32 9.34 -5 9 C-5.40729228 6.67843403 -5.74438677 4.3431213 -6 2 C-5.34 2 -4.68 2 -4 2 C-4 2.99 -4 3.98 -4 5 C-3.34 5 -2.68 5 -2 5 C-1.34 3.35 -0.68 1.7 0 0 Z " fill="#131211" transform="translate(70,59)"/>
<path d="M0 0 C1.65 1.65 3.3 3.3 5 5 C4.34 6.65 3.68 8.3 3 10 C1.35 9.67 -0.3 9.34 -2 9 C-2 8.34 -2 7.68 -2 7 C-0.68 6.34 0.64 5.68 2 5 C1.34 3.35 0.68 1.7 0 0 Z " fill="#302F27" transform="translate(52,38)"/>
<path d="M0 0 C0.66 0 1.32 0 2 0 C1.47731534 2.76276177 0.89130413 5.3260876 0 8 C-0.66 8 -1.32 8 -2 8 C-2 8.66 -2 9.32 -2 10 C-2.66 10 -3.32 10 -4 10 C-4.33 8.68 -4.66 7.36 -5 6 C-4.01 5.67 -3.02 5.34 -2 5 C-2 4.34 -2 3.68 -2 3 C-1.34 3 -0.68 3 0 3 C0 2.01 0 1.02 0 0 Z " fill="#715F5A" transform="translate(107,73)"/>
<path d="M0 0 C1.32 0.33 2.64 0.66 4 1 C4.36923077 8.50769231 4.36923077 8.50769231 2.5 11 C2.005 11.33 1.51 11.66 1 12 C0.67 10.68 0.34 9.36 0 8 C0.66 7.67 1.32 7.34 2 7 C2.33 6.01 2.66 5.02 3 4 C2.01 3.67 1.02 3.34 0 3 C0 2.01 0 1.02 0 0 Z " fill="#EC4FB7" transform="translate(56,99)"/>
<path d="M0 0 C0.66 1.32 1.32 2.64 2 4 C1.01 5.32 0.02 6.64 -1 8 C-1.99 7.67 -2.98 7.34 -4 7 C-3.43628586 3.73045798 -2.50037734 2.17424117 0 0 Z " fill="#161711" transform="translate(73,83)"/>
<path d="M0 0 C0.33 0.99 0.66 1.98 1 3 C1.66 3.33 2.32 3.66 3 4 C4.625 5.375 4.625 5.375 6 7 C6 7.99 6 8.98 6 10 C5.34 10 4.68 10 4 10 C4 9.34 4 8.68 4 8 C3.01 8 2.02 8 1 8 C1 6.68 1 5.36 1 4 C0.01 4 -0.98 4 -2 4 C-2 3.34 -2 2.68 -2 2 C-1.34 2 -0.68 2 0 2 C0 1.34 0 0.68 0 0 Z " fill="#79776E" transform="translate(22,70)"/>
<path d="M0 0 C-0.33 1.32 -0.66 2.64 -1 4 C-1.66 4 -2.32 4 -3 4 C-3 3.01 -3 2.02 -3 1 C-4.65 1.33 -6.3 1.66 -8 2 C-7.67 3.32 -7.34 4.64 -7 6 C-7.99 5.34 -8.98 4.68 -10 4 C-9.67 2.68 -9.34 1.36 -9 0 C-3.375 -1.125 -3.375 -1.125 0 0 Z " fill="#0F100F" transform="translate(84,49)"/>
<path d="M0 0 C0.66 0.33 1.32 0.66 2 1 C2 5.62 2 10.24 2 15 C0.57319974 12.14639949 -0.44071554 9.93763309 -1.25 6.9375 C-1.53617187 5.93009766 -1.53617187 5.93009766 -1.828125 4.90234375 C-2 3 -2 3 0 0 Z " fill="#6A665C" transform="translate(105,3)"/>
<path d="M0 0 C0 3.63 0 7.26 0 11 C-1.32 10.67 -2.64 10.34 -4 10 C-3.34 9.67 -2.68 9.34 -2 9 C-2 7.35 -2 5.7 -2 4 C-3.32 3.34 -4.64 2.68 -6 2 C-3 0 -3 0 0 0 Z " fill="#EA4FAE" transform="translate(54,116)"/>
<path d="M0 0 C0 0.99 0 1.98 0 3 C1.32 3.66 2.64 4.32 4 5 C4 5.33 4 5.66 4 6 C-1.5 6.36666667 -1.5 6.36666667 -3.875 4.625 C-5 3 -5 3 -5 1 C-2 0 -2 0 0 0 Z " fill="#BA7E18" transform="translate(81,50)"/>
<path d="M0 0 C0.66 0 1.32 0 2 0 C2.33 0.66 2.66 1.32 3 2 C6.465 1.505 6.465 1.505 10 1 C10.33 1.66 10.66 2.32 11 3 C9.56496445 3.36402369 8.12683494 3.71586591 6.6875 4.0625 C5.88699219 4.25972656 5.08648437 4.45695312 4.26171875 4.66015625 C2 5 2 5 -1 4 C-0.67 2.68 -0.34 1.36 0 0 Z " fill="#E14D9E" transform="translate(112,110)"/>
<path d="M0 0 C4.08378283 0.74250597 8.01939223 1.82923301 12 3 C11.01 3.495 11.01 3.495 10 4 C9.67 4.99 9.34 5.98 9 7 C8.34 7 7.68 7 7 7 C6.67 6.01 6.34 5.02 6 4 C2.99992729 2.29144978 2.99992729 2.29144978 0 1 C0 0.67 0 0.34 0 0 Z " fill="#1E1E15" transform="translate(92,38)"/>
<path d="M0 0 C0.33 0 0.66 0 1 0 C1 2.97 1 5.94 1 9 C-0.32 9.33 -1.64 9.66 -3 10 C-2.49287967 6.28111761 -1.88391785 3.26545761 0 0 Z " fill="#E74DA8" transform="translate(102,115)"/>
<path d="M0 0 C0.99 0.33 1.98 0.66 3 1 C3 2.65 3 4.3 3 6 C2.34 6 1.68 6 1 6 C0.67 6.99 0.34 7.98 0 9 C-1.125 6.1875 -1.125 6.1875 -2 3 C-1.34 2.01 -0.68 1.02 0 0 Z " fill="#C74B86" transform="translate(29,100)"/>
<path d="M0 0 C0.33 0.99 0.66 1.98 1 3 C1.99 3 2.98 3 4 3 C3.1875 4.9375 3.1875 4.9375 2 7 C1.01 7.33 0.02 7.66 -1 8 C-1.625 5.6875 -1.625 5.6875 -2 3 C-1.34 2.01 -0.68 1.02 0 0 Z " fill="#76756B" transform="translate(20,62)"/>
<path d="M0 0 C0.66 0.33 1.32 0.66 2 1 C2.26218749 4.14624993 2.24754367 5.61837017 0.5 8.3125 C-0.2425 9.1478125 -0.2425 9.1478125 -1 10 C-2.25 3.375 -2.25 3.375 0 0 Z " fill="#5C5B52" transform="translate(113,53)"/>
<path d="M0 0 C2 3 2 3 2 6 C2.66 6 3.32 6 4 6 C4 6.66 4 7.32 4 8 C2.68 8 1.36 8 0 8 C-1.4606285 5.35261084 -2 4.10551666 -2 1 C-1.34 0.67 -0.68 0.34 0 0 Z " fill="#727168" transform="translate(109,41)"/>
<path d="M0 0 C0.66 0.99 1.32 1.98 2 3 C-0.35277269 5.72426311 -2.62496331 6.8141763 -6 8 C-4.55746343 4.63408134 -2.66735273 2.48952921 0 0 Z " fill="#322F28" transform="translate(87,35)"/>
<path d="M0 0 C1.43088528 2.86177057 0.59991697 4.93375773 0 8 C-1.65 8 -3.3 8 -5 8 C-4 6 -4 6 -3 5 C-3.99 4.67 -4.98 4.34 -6 4 C-4.02 2.68 -2.04 1.36 0 0 Z " fill="#403F37" transform="translate(104,2)"/>
<path d="M0 0 C0.66 0.66 1.32 1.32 2 2 C1.625 5.625 1.625 5.625 1 9 C-0.5625 7.25 -0.5625 7.25 -2 5 C-1.75203633 2.83031791 -1.55766393 1.55766393 0 0 Z " fill="#4B3969" transform="translate(74,119)"/>
<path d="M0 0 C0.33 0 0.66 0 1 0 C1 1.98 1 3.96 1 6 C0.34 6 -0.32 6 -1 6 C-1 8.97 -1 11.94 -1 15 C-1.33 15 -1.66 15 -2 15 C-2.05406122 13.06280622 -2.09282025 11.12518079 -2.125 9.1875 C-2.14820312 8.10855469 -2.17140625 7.02960937 -2.1953125 5.91796875 C-2 3 -2 3 0 0 Z " fill="#424139" transform="translate(31,13)"/>
<path d="M0 0 C1.65 1.65 3.3 3.3 5 5 C4.01 5.99 3.02 6.98 2 8 C0.23537317 4.91190305 0 3.76687864 0 0 Z " fill="#E952A8" transform="translate(27,86)"/>
<path d="M0 0 C2.31 0.66 4.62 1.32 7 2 C6.01 2.33 5.02 2.66 4 3 C4 3.99 4 4.98 4 6 C3.01 6 2.02 6 1 6 C0.67 4.02 0.34 2.04 0 0 Z " fill="#131612" transform="translate(50,47)"/>
<path d="M0 0 C-0.99 1.98 -1.98 3.96 -3 6 C-4.65 5.01 -6.3 4.02 -8 3 C-5.53387212 -0.1151089 -3.89156016 -0.31553191 0 0 Z " fill="#1E1E17" transform="translate(77,45)"/>
<path d="M0 0 C0.66 0 1.32 0 2 0 C1.25 4.75 1.25 4.75 -1 7 C-2.32 5.68 -3.64 4.36 -5 3 C-4.360625 2.87625 -3.72125 2.7525 -3.0625 2.625 C-2.0415625 2.315625 -2.0415625 2.315625 -1 2 C-0.67 1.34 -0.34 0.68 0 0 Z " fill="#212417" transform="translate(95,14)"/>
<path d="M0 0 C2.31 1.65 4.62 3.3 7 5 C6.67 5.99 6.34 6.98 6 8 C3.5625 6.8125 3.5625 6.8125 1 5 C0.1875 2.3125 0.1875 2.3125 0 0 Z " fill="#4E4841" transform="translate(39,11)"/>
<path d="M0 0 C1.56041016 -0.00773438 1.56041016 -0.00773438 3.15234375 -0.015625 C6.0625 0.25 6.0625 0.25 10.0625 2.25 C3.7925 2.25 -2.4775 2.25 -8.9375 2.25 C-5.48666005 -0.05055997 -4.06574272 -0.02010256 0 0 Z " fill="#AF504D" transform="translate(63.9375,5.75)"/>
<path d="M0 0 C0.66 0 1.32 0 2 0 C1.67 1.65 1.34 3.3 1 5 C-0.65 5 -2.3 5 -4 5 C-3.34 3.68 -2.68 2.36 -2 1 C-1.34 1.33 -0.68 1.66 0 2 C0 1.34 0 0.68 0 0 Z " fill="#1F2231" transform="translate(94,111)"/>
<path d="M0 0 C0.99 0.66 1.98 1.32 3 2 C2.67 2.99 2.34 3.98 2 5 C0.35 5 -1.3 5 -3 5 C-1.125 1.125 -1.125 1.125 0 0 Z " fill="#E19D35" transform="translate(91,104)"/>
<path d="M0 0 C1.45742463 -0.08096803 2.91612807 -0.13917774 4.375 -0.1875 C5.18710937 -0.22230469 5.99921875 -0.25710937 6.8359375 -0.29296875 C7.55007812 -0.19628906 8.26421875 -0.09960938 9 0 C9.66 0.99 10.32 1.98 11 3 C9.741875 2.87625 8.48375 2.7525 7.1875 2.625 C6.12595703 2.52058594 6.12595703 2.52058594 5.04296875 2.4140625 C3 2 3 2 0 0 Z " fill="#A2445A" transform="translate(48,22)"/>
<path d="M0 0 C0.99 0.66 1.98 1.32 3 2 C3 2.66 3 3.32 3 4 C0.69 4 -1.62 4 -4 4 C-3.67 3.01 -3.34 2.02 -3 1 C-2.01 0.67 -1.02 0.34 0 0 Z " fill="#C3459E" transform="translate(71,124)"/>
<path d="M0 0 C0.99 0.99 1.98 1.98 3 3 C2.01 4.485 2.01 4.485 1 6 C0.01 5.67 -0.98 5.34 -2 5 C-1.125 1.125 -1.125 1.125 0 0 Z " fill="#9C4867" transform="translate(69,120)"/>
<path d="M0 0 C0.66 0.66 1.32 1.32 2 2 C1.7578125 4.1640625 1.7578125 4.1640625 1.125 6.625 C0.92132813 7.44226563 0.71765625 8.25953125 0.5078125 9.1015625 C0.34023437 9.72804688 0.17265625 10.35453125 0 11 C-0.33 11 -0.66 11 -1 11 C-1.02688151 9.35425434 -1.04634123 7.70838587 -1.0625 6.0625 C-1.07410156 5.14597656 -1.08570312 4.22945313 -1.09765625 3.28515625 C-1 1 -1 1 0 0 Z " fill="#B84886" transform="translate(67,116)"/>
<path d="M0 0 C0.99 0.33 1.98 0.66 3 1 C0.87219421 3.34058637 -1.11562221 4.70700306 -4 6 C-3.6875 4.125 -3.6875 4.125 -3 2 C-2.01 1.34 -1.02 0.68 0 0 Z " fill="#E14D9D" transform="translate(98,92)"/>
<path d="M0 0 C1.98 0 3.96 0 6 0 C5.34 1.65 4.68 3.3 4 5 C3.34 5 2.68 5 2 5 C2 4.01 2 3.02 2 2 C1.34 2 0.68 2 0 2 C0 1.34 0 0.68 0 0 Z " fill="#2B223E" transform="translate(64,59)"/>
<path d="M0 0 C1.65 0 3.3 0 5 0 C4.01 1.98 3.02 3.96 2 6 C0.68 5.67 -0.64 5.34 -2 5 C-1.67 4.360625 -1.34 3.72125 -1 3.0625 C0.07271225 1.23205433 0.07271225 1.23205433 0 0 Z " fill="#131311" transform="translate(58,50)"/>
<path d="M0 0 C1.125 1.625 1.125 1.625 2 4 C1.125 7.25 1.125 7.25 0 10 C-0.66 10 -1.32 10 -2 10 C-2 8.35 -2 6.7 -2 5 C-1.67 5 -1.34 5 -1 5 C-0.67 3.35 -0.34 1.7 0 0 Z " fill="#9A6D74" transform="translate(106,31)"/>
<path d="M0 0 C1.65 1.65 3.3 3.3 5 5 C4.34 5 3.68 5 3 5 C3 5.66 3 6.32 3 7 C2.34 7 1.68 7 1 7 C0.67 4.69 0.34 2.38 0 0 Z " fill="#292820" transform="translate(32,8)"/>
<path d="M0 0 C1.98 0 3.96 0 6 0 C5.34 1.32 4.68 2.64 4 4 C2.68 3.34 1.36 2.68 0 2 C0 1.34 0 0.68 0 0 Z " fill="#DCA13F" transform="translate(88,121)"/>
<path d="M0 0 C-0.33 1.32 -0.66 2.64 -1 4 C-3.31 3.34 -5.62 2.68 -8 2 C-4.91190305 0.23537317 -3.76687864 0 0 0 Z " fill="#D54A94" transform="translate(49,86)"/>
<path d="M0 0 C2.31 0 4.62 0 7 0 C6.67 0.66 6.34 1.32 6 2 C5.34 2 4.68 2 4 2 C4 2.66 4 3.32 4 4 C2.68 3.34 1.36 2.68 0 2 C0 1.34 0 0.68 0 0 Z " fill="#21211A" transform="translate(38,24)"/>
<path d="M0 0 C0.99 0.66 1.98 1.32 3 2 C2.1875 4.4375 2.1875 4.4375 1 7 C0.01 7.33 -0.98 7.66 -2 8 C-2 6.68 -2 5.36 -2 4 C-1.34 4 -0.68 4 0 4 C0 2.68 0 1.36 0 0 Z " fill="#3C3163" transform="translate(70,105)"/>
<path d="M0 0 C1.65 0.33 3.3 0.66 5 1 C5 1.99 5 2.98 5 4 C3.35 3.67 1.7 3.34 0 3 C0 2.01 0 1.02 0 0 Z " fill="#55375E" transform="translate(51,93)"/>
<path d="M0 0 C0.66 0.33 1.32 0.66 2 1 C1 4 1 4 -1.4375 5.75 C-2.7059375 6.36875 -2.7059375 6.36875 -4 7 C-4.66 6.67 -5.32 6.34 -6 6 C-4.02 4.02 -2.04 2.04 0 0 Z " fill="#865157" transform="translate(75,87)"/>
<path d="M0 0 C2.375 0.3125 2.375 0.3125 5 1 C5.66 1.99 6.32 2.98 7 4 C4.69 3.67 2.38 3.34 0 3 C0 2.01 0 1.02 0 0 Z " fill="#874A52" transform="translate(54,86)"/>
<path d="M0 0 C0.66 0.33 1.32 0.66 2 1 C1.75 2.875 1.75 2.875 1 5 C-1.0625 6.25 -1.0625 6.25 -3 7 C-1.125 1.125 -1.125 1.125 0 0 Z " fill="#2C2B24" transform="translate(64,64)"/>
<path d="M0 0 C2.475 0.495 2.475 0.495 5 1 C4.34 2.32 3.68 3.64 3 5 C2.01 4.34 1.02 3.68 0 3 C0 2.01 0 1.02 0 0 Z " fill="#C2851C" transform="translate(54,50)"/>
<path d="M0 0 C0.6875 1.8125 0.6875 1.8125 1 4 C-0.25 5.75 -0.25 5.75 -2 7 C-2.99 7 -3.98 7 -5 7 C-4.6875 5.0625 -4.6875 5.0625 -4 3 C-3.01 2.67 -2.02 2.34 -1 2 C-0.67 1.34 -0.34 0.68 0 0 Z " fill="#D14A8E" transform="translate(100,26)"/>
<path d="M0 0 C0.33 0 0.66 0 1 0 C1 4.29 1 8.58 1 13 C0.67 13 0.34 13 0 13 C0 8.71 0 4.42 0 0 Z " fill="#5E5E47" transform="translate(26,11)"/>
<path d="M0 0 C1.32 0.66 2.64 1.32 4 2 C2.68 2.99 1.36 3.98 0 5 C-0.66 4.67 -1.32 4.34 -2 4 C-1.34 2.68 -0.68 1.36 0 0 Z " fill="#613538" transform="translate(88,9)"/>
<path d="M0 0 C3.16115776 1.36983503 3.9927092 1.9890638 6 5 C2.83884224 3.63016497 2.0072908 3.0109362 0 0 Z " fill="#482E15" transform="translate(30,2)"/>
<path d="M0 0 C0.66 0.66 1.32 1.32 2 2 C1.625 4.125 1.625 4.125 1 6 C0.67 4.02 0.34 2.04 0 0 Z " fill="#B98EA0" transform="translate(108,31)"/>
<path d="M0 0 C0.33 0 0.66 0 1 0 C1 2.31 1 4.62 1 7 C0.67 7 0.34 7 0 7 C0 4.69 0 2.38 0 0 Z " fill="#AA8B8B" transform="translate(108,11)"/>
<path d="M0 0 C2.97 0.495 2.97 0.495 6 1 C5.01 1.33 4.02 1.66 3 2 C2.01 1.34 1.02 0.68 0 0 Z " fill="#AA3F41" transform="translate(74,8)"/>
<path d="M0 0 C0.33 0 0.66 0 1 0 C1 2.31 1 4.62 1 7 C0.67 7 0.34 7 0 7 C0 4.69 0 2.38 0 0 Z " fill="#36362D" transform="translate(107,4)"/>
<path d="M0 0 C0.66 0.33 1.32 0.66 2 1 C0.02 1.99 0.02 1.99 -2 3 C-1.34 2.01 -0.68 1.02 0 0 Z " fill="#232323" transform="translate(100,2)"/>
<path d="M0 0 C0.33 0.66 0.66 1.32 1 2 C0.34 2.66 -0.32 3.32 -1 4 C-0.67 2.68 -0.34 1.36 0 0 Z " fill="#A12A51" transform="translate(15,98)"/>
<path d="M0 0 C0.33 0 0.66 0 1 0 C1 1.65 1 3.3 1 5 C0.67 5 0.34 5 0 5 C0 3.35 0 1.7 0 0 Z " fill="#37372A" transform="translate(115,59)"/>
<path d="M0 0 C0.66 1.32 1.32 2.64 2 4 C1.34 4 0.68 4 0 4 C0 2.68 0 1.36 0 0 Z " fill="#333333" transform="translate(116,54)"/>
<path d="M0 0 C1.98 0.99 1.98 0.99 4 2 C2.68 1.67 1.36 1.34 0 1 C0 0.67 0 0.34 0 0 Z " fill="#3B2A2A" transform="translate(42,12)"/>
<path d="M0 0 C0.33 0 0.66 0 1 0 C1 1.65 1 3.3 1 5 C0.67 5 0.34 5 0 5 C0 3.35 0 1.7 0 0 Z " fill="#382E2E" transform="translate(27,6)"/>
<path d="M0 0 C0.99 0.495 0.99 0.495 2 1 C1.67 1.66 1.34 2.32 1 3 C0.67 2.01 0.34 1.02 0 0 Z " fill="#7F5F5F" transform="translate(6,114)"/>
<path d="M0 0 C0 3 0 3 0 3 Z " fill="#7F3366" transform="translate(13,102)"/>
<path d="M0 0 C0 3 0 3 0 3 Z " fill="#C57969" transform="translate(17,95)"/>
<path d="M0 0 C0.99 0.495 0.99 0.495 2 1 C1.67 1.66 1.34 2.32 1 3 C0.67 2.01 0.34 1.02 0 0 Z " fill="#4A3A25" transform="translate(112,88)"/>
<path d="M0 0 C0 3 0 3 0 3 Z " fill="#867979" transform="translate(25,83)"/>
<path d="M0 0 C0.66 0.66 1.32 1.32 2 2 C1.01 2.495 1.01 2.495 0 3 C0 2.01 0 1.02 0 0 Z " fill="#0C0C00" transform="translate(108,78)"/>
<path d="M0 0 C0.66 0 1.32 0 2 0 C1.67 0.99 1.34 1.98 1 3 C0.67 2.01 0.34 1.02 0 0 Z " fill="#6A6A62" transform="translate(20,75)"/>
<path d="M0 0 C1 4 1 4 1 4 Z " fill="#8A8A8A" transform="translate(18,70)"/>
<path d="M0 0 C1 4 1 4 1 4 Z " fill="#555555" transform="translate(18,51)"/>
<path d="M0 0 C0 3 0 3 0 3 Z " fill="#101010" transform="translate(113,49)"/>
<path d="M0 0 C1 4 1 4 1 4 Z " fill="#201515" transform="translate(27,24)"/>
<path d="M0 0 C0.66 0.33 1.32 0.66 2 1 C1.01 1 0.02 1 -1 1 C-0.67 0.67 -0.34 0.34 0 0 Z " fill="#2C2C2C" transform="translate(95,6)"/>
<path d="" fill="#3B3B3B" transform="translate(0,0)"/>
<path d="M0 0 C0.99 0.495 0.99 0.495 2 1 C1.01 1.495 1.01 1.495 0 2 C0 1.34 0 0.68 0 0 Z " fill="#503D3D" transform="translate(26,81)"/>
<path d="" fill="#CCCC77" transform="translate(0,0)"/>
<path d="" fill="#555538" transform="translate(0,0)"/>
<path d="" fill="#939382" transform="translate(0,0)"/>
<path d="" fill="#6A6A6A" transform="translate(0,0)"/>
<path d="M0 0 C0.66 0 1.32 0 2 0 C1.67 0.66 1.34 1.32 1 2 C0.67 1.34 0.34 0.68 0 0 Z " fill="#2A2A2A" transform="translate(112,45)"/>
<path d="" fill="#383838" transform="translate(0,0)"/>
<path d="" fill="#111111" transform="translate(0,0)"/>
<path d="M0 0 C3 1 3 1 3 1 Z " fill="#94314E" transform="translate(52,8)"/>
<path d="" fill="#5D5D44" transform="translate(0,0)"/>
<path d="" fill="#555555" transform="translate(0,0)"/>
<path d="" fill="#000000" transform="translate(0,0)"/>
<path d="" fill="#905D5D" transform="translate(0,0)"/>
<path d="" fill="#CCB2B2" transform="translate(0,0)"/>
<path d="" fill="#A1445D" transform="translate(0,0)"/>
<path d="" fill="#CCB233" transform="translate(0,0)"/>
<path d="" fill="#DF9F9F" transform="translate(0,0)"/>
<path d="" fill="#955555" transform="translate(0,0)"/>
<path d="" fill="#CCB233" transform="translate(0,0)"/>
<path d="" fill="#BFAAAA" transform="translate(0,0)"/>
<path d="" fill="#D42A7F" transform="translate(0,0)"/>
<path d="" fill="#9F4060" transform="translate(0,0)"/>
<path d="" fill="#806A6A" transform="translate(0,0)"/>
<path d="" fill="#BF4080" transform="translate(0,0)"/>
<path d="" fill="#5F2040" transform="translate(0,0)"/>
<path d="" fill="#8C5973" transform="translate(0,0)"/>
<path d="" fill="#952A2A" transform="translate(0,0)"/>
<path d="" fill="#AA2A55" transform="translate(0,0)"/>
<path d="" fill="#552A2A" transform="translate(0,0)"/>
<path d="" fill="#AA4040" transform="translate(0,0)"/>
<path d="M0 0 C2 1 2 1 2 1 Z " fill="#808080" transform="translate(23,79)"/>
<path d="M0 0 C2 1 2 1 2 1 Z " fill="#5D5D5D" transform="translate(110,76)"/>
<path d="" fill="#707070" transform="translate(0,0)"/>
<path d="" fill="#6A6A6A" transform="translate(0,0)"/>
<path d="" fill="#404040" transform="translate(0,0)"/>
<path d="" fill="#6A6A6A" transform="translate(0,0)"/>
<path d="" fill="#2A2A2A" transform="translate(0,0)"/>
<path d="" fill="#808080" transform="translate(0,0)"/>
<path d="" fill="#000000" transform="translate(0,0)"/>
<path d="M0 0 C2 1 2 1 2 1 Z " fill="#55552A" transform="translate(107,40)"/>
<path d="" fill="#952A4A" transform="translate(0,0)"/>
<path d="" fill="#959595" transform="translate(0,0)"/>
<path d="" fill="#959595" transform="translate(0,0)"/>
<path d="" fill="#BFBFBF" transform="translate(0,0)"/>
<path d="" fill="#8C8C8C" transform="translate(0,0)"/>
<path d="" fill="#FFFFFF" transform="translate(0,0)"/>
<path d="M0 0 C2 1 2 1 2 1 Z " fill="#CC99B2" transform="translate(48,10)"/>
<path d="M0 0 C2 1 2 1 2 1 Z " fill="#AA2A55" transform="translate(50,9)"/>
<path d="M0 0 C2 1 2 1 2 1 Z " fill="#606040" transform="translate(38,9)"/>
<path d="M0 0 C2 1 2 1 2 1 Z " fill="#956A6A" transform="translate(84,6)"/>
<path d="" fill="#000000" transform="translate(0,0)"/>
<path d="M0 0 C2 1 2 1 2 1 Z " fill="#000000" transform="translate(105,1)"/>
<path d="M0 0 C2 1 2 1 2 1 Z " fill="#555555" transform="translate(102,1)"/>
<path d="" fill="#000000" transform="translate(0,0)"/>
<path d="" fill="#404040" transform="translate(0,0)"/>
<path d="" fill="#404040" transform="translate(0,0)"/>
<path d="" fill="#805555" transform="translate(0,0)"/>
<path d="" fill="#996666" transform="translate(0,0)"/>
<path d="" fill="#AA5555" transform="translate(0,0)"/>
<path d="" fill="#AA5555" transform="translate(0,0)"/>
<path d="" fill="#BF8080" transform="translate(0,0)"/>
<path d="" fill="#808080" transform="translate(0,0)"/>
<path d="" fill="#808080" transform="translate(0,0)"/>
<path d="" fill="#996666" transform="translate(0,0)"/>
<path d="" fill="#996666" transform="translate(0,0)"/>
<path d="" fill="#996666" transform="translate(0,0)"/>
<path d="" fill="#996666" transform="translate(0,0)"/>
<path d="" fill="#996666" transform="translate(0,0)"/>
<path d="" fill="#805555" transform="translate(0,0)"/>
<path d="" fill="#996666" transform="translate(0,0)"/>
<path d="" fill="#AAAAAA" transform="translate(0,0)"/>
<path d="" fill="#BF8080" transform="translate(0,0)"/>
<path d="" fill="#000000" transform="translate(0,0)"/>
<path d="" fill="#000000" transform="translate(0,0)"/>
<path d="" fill="#666666" transform="translate(0,0)"/>
<path d="" fill="#808080" transform="translate(0,0)"/>
<path d="" fill="#000000" transform="translate(0,0)"/>
<path d="" fill="#000000" transform="translate(0,0)"/>
<path d="" fill="#000000" transform="translate(0,0)"/>
<path d="" fill="#333333" transform="translate(0,0)"/>
<path d="" fill="#555555" transform="translate(0,0)"/>
<path d="" fill="#494949" transform="translate(0,0)"/>
<path d="" fill="#404040" transform="translate(0,0)"/>
<path d="" fill="#400000" transform="translate(0,0)"/>
<path d="" fill="#494924" transform="translate(0,0)"/>
<path d="" fill="#666666" transform="translate(0,0)"/>
<path d="" fill="#555555" transform="translate(0,0)"/>
<path d="" fill="#663333" transform="translate(0,0)"/>
<path d="" fill="#805555" transform="translate(0,0)"/>
<path d="" fill="#808080" transform="translate(0,0)"/>
<path d="" fill="#000000" transform="translate(0,0)"/>
<path d="" fill="#555555" transform="translate(0,0)"/>
<path d="" fill="#808040" transform="translate(0,0)"/>
<path d="" fill="#AA5555" transform="translate(0,0)"/>
<path d="" fill="#2B2B2B" transform="translate(0,0)"/>
<path d="" fill="#994D66" transform="translate(0,0)"/>
<path d="" fill="#333333" transform="translate(0,0)"/>
<path d="" fill="#333333" transform="translate(0,0)"/>
<path d="" fill="#AA0055" transform="translate(0,0)"/>
<path d="" fill="#666633" transform="translate(0,0)"/>
<path d="" fill="#808080" transform="translate(0,0)"/>
<path d="" fill="#FF0000" transform="translate(0,0)"/>
<path d="" fill="#2B2B2B" transform="translate(0,0)"/>
<path d="" fill="#FF8080" transform="translate(0,0)"/>
<path d="" fill="#804040" transform="translate(0,0)"/>
<path d="" fill="#404040" transform="translate(0,0)"/>
<path d="" fill="#666666" transform="translate(0,0)"/>
<path d="" fill="#000000" transform="translate(0,0)"/>
<path d="" fill="#000000" transform="translate(0,0)"/>
<path d="" fill="#000000" transform="translate(0,0)"/>
<path d="" fill="#000000" transform="translate(0,0)"/>
</svg>
